<?xml version="1.0" standalone="no"?>
<!DOCTYPE svg PUBLIC "-//W3C//DTD SVG 20010904//EN"
 "http://www.w3.org/TR/2001/REC-SVG-20010904/DTD/svg10.dtd">
<svg version="1.0" xmlns="http://www.w3.org/2000/svg"
 width="730.000000pt" height="823.000000pt" viewBox="0 0 730.000000 823.000000"
 preserveAspectRatio="xMidYMid meet">

<g transform="translate(0.000000,823.000000) scale(0.100000,-0.100000)"
fill="#000000" stroke="none">
<path d="M846 8138 c-3 -13 -3 -88 1 -168 7 -160 0 -190 -42 -190 -31 0 -92
-71 -101 -117 -4 -19 -4 -57 -1 -86 4 -43 10 -56 38 -79 37 -31 37 -28 -26
-133 -17 -27 -37 -62 -44 -77 -8 -15 -23 -28 -34 -30 -15 -2 -21 -12 -24 -43
-2 -22 -8 -44 -14 -50 -12 -12 -12 -45 1 -45 6 0 10 4 10 10 0 5 18 27 40 48
27 26 39 44 35 55 -4 9 16 55 51 115 l58 100 69 -2 c77 -3 89 -10 132 -91 15
-27 36 -64 47 -82 18 -30 18 -32 1 -42 -17 -9 -17 -10 2 -17 11 -4 35 -21 53
-37 l32 -31 0 25 c0 42 -25 110 -36 99 -6 -6 -27 20 -61 78 -29 48 -57 92 -63
99 -15 18 -13 28 11 49 76 69 63 209 -25 264 -19 11 -41 20 -49 20 -9 0 -20 8
-24 18 -11 22 -10 310 1 340 7 18 5 22 -12 22 -12 0 -22 -9 -26 -22z m84 -397
c76 -40 99 -119 58 -192 -74 -133 -262 -85 -262 66 0 111 108 178 204 126z"/>
<path d="M835 7643 c-9 -21 -19 -50 -22 -66 -5 -22 -3 -26 11 -21 9 3 16 10
16 15 0 15 42 10 62 -8 30 -27 32 -6 5 54 -32 71 -51 78 -72 26z m49 -18 c4
-10 -1 -15 -14 -15 -13 0 -18 5 -14 15 4 8 10 15 14 15 4 0 10 -7 14 -15z"/>
<path d="M2666 7875 c6 -77 5 -85 -12 -90 -48 -15 -90 -43 -111 -74 -42 -62
-25 -184 32 -229 14 -11 25 -23 25 -27 0 -15 -52 -114 -65 -125 -8 -7 -15 -18
-15 -25 0 -19 -30 -75 -41 -75 -5 0 -9 5 -9 10 0 6 -4 10 -9 10 -5 0 -11 -17
-14 -37 -2 -21 -9 -53 -15 -70 -6 -18 -8 -33 -4 -33 4 1 29 21 56 46 36 33 46
48 37 53 -10 7 -6 21 17 62 16 30 43 79 59 109 29 54 31 55 75 56 74 2 139 45
169 111 l19 43 131 0 c112 0 130 -2 125 -15 -7 -19 18 -20 47 0 12 8 38 16 56
17 31 3 35 0 47 -37 8 -22 26 -51 40 -66 28 -30 27 -35 -26 -124 -20 -33 -45
-77 -55 -97 -16 -36 -35 -50 -35 -28 0 6 -5 10 -10 10 -7 0 -8 -13 -5 -33 4
-21 1 -48 -9 -72 -9 -21 -14 -40 -11 -43 2 -3 24 17 49 44 30 33 41 53 35 60
-6 8 -3 24 10 45 11 19 34 61 52 95 50 95 46 92 133 95 l78 4 26 -45 c15 -25
30 -46 34 -48 4 -2 8 -10 8 -18 0 -8 11 -32 25 -52 14 -20 25 -46 25 -57 1
-28 79 -110 93 -96 7 7 5 16 -7 29 -10 12 -17 37 -18 66 -1 48 -6 54 -26 34
-14 -14 -11 -19 -64 72 -72 123 -75 134 -45 173 66 87 49 181 -46 247 -23 16
-47 34 -54 40 -16 13 -53 13 -53 0 0 -5 -15 -10 -33 -10 -18 0 -40 -6 -49 -12
-20 -18 -53 -75 -68 -121 -10 -32 -15 -37 -33 -31 -46 14 -65 23 -72 33 -3 6
-15 11 -26 11 -15 0 -19 -5 -14 -19 5 -18 -1 -19 -130 -19 -126 1 -135 2 -135
20 0 29 -29 78 -45 78 -20 0 -19 -7 5 -37 26 -33 26 -98 0 -141 -79 -129 -270
-72 -270 81 0 41 5 52 39 86 43 43 98 59 144 42 17 -7 28 -7 32 -1 9 15 -4 30
-24 30 -32 0 -40 22 -37 103 3 69 1 77 -16 77 -17 0 -18 -7 -12 -85z m839
-144 c17 -9 40 -38 53 -63 21 -41 22 -51 12 -89 -14 -52 -66 -104 -112 -113
-63 -12 -135 22 -162 75 -49 98 23 210 134 208 25 0 59 -8 75 -18z"/>
<path d="M3407 7672 c-15 -3 -17 -13 -15 -65 l3 -62 36 -3 c41 -3 66 17 53 45
-4 10 -8 31 -8 47 -1 23 -7 31 -26 36 -14 3 -33 4 -43 2z m41 -34 c-6 -18 -28
-21 -28 -4 0 9 7 16 16 16 9 0 14 -5 12 -12z m12 -58 c0 -5 -5 -12 -11 -16
-14 -8 -33 11 -25 25 7 11 36 4 36 -9z"/>
<path d="M190 7735 c-19 -23 -21 -148 -3 -166 21 -21 28 -1 15 47 -9 32 -9 51
-1 65 5 11 9 32 7 46 -3 25 -4 25 -18 8z"/>
<path d="M345 7650 c0 -88 7 -112 19 -67 12 47 4 157 -13 157 -3 0 -6 -40 -6
-90z"/>
<path d="M260 7713 c-10 -12 -11 -18 -2 -21 7 -2 12 -23 12 -53 0 -69 16 -61
24 12 8 79 -2 97 -34 62z"/>
<path d="M2651 7643 c-7 -21 -17 -48 -23 -60 -14 -28 -1 -45 15 -22 21 28 54
33 67 9 12 -22 30 -27 30 -7 -1 6 -9 30 -20 52 -11 22 -19 46 -20 53 0 6 -8
12 -18 12 -12 0 -22 -13 -31 -37z m39 -28 c0 -8 -4 -15 -9 -15 -13 0 -22 16
-14 24 11 11 23 6 23 -9z"/>
<path d="M1175 7148 c-40 -14 -94 -65 -112 -107 -25 -58 0 -149 53 -190 l26
-21 -22 -37 c-34 -57 -60 -104 -82 -145 -19 -36 -38 -50 -38 -27 0 26 -18 -5
-24 -41 -3 -23 -12 -49 -18 -60 -7 -10 -9 -22 -6 -25 9 -9 100 84 93 95 -3 5
15 43 40 85 25 42 45 79 45 82 0 3 9 18 20 33 19 27 24 29 69 23 31 -3 51 -1
55 6 15 24 35 9 62 -46 15 -32 43 -83 61 -113 21 -35 29 -58 23 -64 -7 -7 0
-19 17 -36 16 -14 35 -36 44 -50 24 -36 32 -20 14 30 -8 23 -15 51 -15 61 0
11 -6 19 -14 19 -12 0 -76 89 -76 105 0 9 -54 90 -62 93 -16 7 -7 27 25 60 30
31 32 38 32 102 0 61 -3 72 -31 107 -51 64 -112 84 -179 61z m111 -39 c51 -24
74 -64 74 -126 0 -77 -39 -124 -113 -138 -87 -17 -162 48 -162 140 0 60 29
105 85 129 47 20 66 20 116 -5z"/>
<path d="M1200 6974 l0 -65 38 3 c37 3 37 4 39 48 2 69 -3 80 -43 80 l-34 0 0
-66z m48 34 c-3 -7 -11 -13 -18 -13 -7 0 -15 6 -17 13 -3 7 4 12 17 12 13 0
20 -5 18 -12z m8 -49 c9 -15 -11 -33 -30 -26 -9 4 -13 13 -10 22 7 17 30 20
40 4z"/>
<path d="M3135 7028 c-3 -7 -4 -38 -3 -68 3 -54 3 -55 36 -58 42 -4 62 12 62
49 0 29 -26 52 -52 47 -7 -2 -14 7 -16 20 -4 24 -20 30 -27 10z m63 -80 c-4
-27 -23 -34 -32 -13 -8 21 1 35 20 35 10 0 14 -8 12 -22z"/>
<path d="M551 7003 c1 -10 -1 -26 -6 -35 -13 -30 2 -48 39 -48 33 0 34 1 32
38 -2 48 -12 62 -42 62 -18 0 -25 -5 -23 -17z"/>
<path d="M3713 7008 c-44 -21 -31 -102 18 -113 17 -4 31 -5 32 -3 1 1 8 13 15
26 10 19 10 23 -3 28 -8 4 -22 1 -31 -6 -19 -16 -40 1 -31 25 5 11 14 14 31 9
35 -8 49 2 36 27 -12 21 -33 23 -67 7z"/>
<path d="M2400 6996 c0 -9 7 -16 16 -16 13 0 12 -4 -6 -18 -31 -25 -18 -52 27
-52 l34 0 -3 48 c-3 45 -4 47 -35 50 -25 2 -33 -1 -33 -12z m45 -56 c3 -5 2
-10 -4 -10 -5 0 -13 5 -16 10 -3 6 -2 10 4 10 5 0 13 -4 16 -10z"/>
<path d="M1216 6720 c-3 -16 -9 -43 -12 -60 -4 -19 -2 -30 5 -30 7 0 11 -45
13 -132 2 -94 7 -133 16 -136 9 -3 12 28 12 131 0 79 4 137 10 139 6 2 4 19
-5 43 -8 22 -14 48 -15 58 0 28 -17 19 -24 -13z"/>
<path d="M6299 6533 c-1 -5 0 -61 1 -126 1 -77 -2 -123 -10 -132 -8 -10 -8
-20 2 -42 25 -53 18 -71 -42 -102 -109 -55 -131 -177 -48 -267 19 -22 19 -22
-7 -70 -88 -165 -99 -184 -114 -182 -11 2 -17 -10 -23 -47 -4 -27 -5 -51 -4
-53 9 -8 76 62 72 75 -3 8 11 44 31 81 20 37 46 85 58 106 l21 40 87 0 88 0
19 -35 c10 -19 27 -50 37 -69 10 -19 27 -47 36 -62 11 -16 16 -35 13 -46 -5
-14 1 -24 17 -35 13 -9 32 -23 41 -33 22 -22 32 -10 18 21 -7 14 -12 37 -12
50 0 25 -16 43 -22 24 -4 -11 -63 76 -112 165 -23 43 -25 51 -12 58 27 15 50
79 49 136 -2 96 -30 130 -128 159 -22 6 -31 15 -33 36 -2 15 2 27 8 27 6 0 9
4 6 8 -3 5 4 23 15 42 l20 33 -21 -6 c-22 -6 -22 -5 -18 124 3 119 2 129 -14
129 -10 0 -18 -3 -19 -7z m102 -435 c41 -23 59 -62 59 -128 0 -53 -35 -103
-87 -125 -49 -21 -70 -19 -120 10 -108 64 -102 206 11 255 46 20 84 17 137
-12z"/>
<path d="M6277 6043 c-11 -10 -8 -92 3 -114 12 -21 41 -25 70 -9 14 8 18 20
17 57 -1 27 -6 54 -10 61 -9 13 -69 17 -80 5z m63 -33 c0 -5 -9 -10 -20 -10
-11 0 -20 5 -20 10 0 6 9 10 20 10 11 0 20 -4 20 -10z m0 -54 c0 -15 -24 -28
-34 -19 -13 14 -5 33 14 33 11 0 20 -6 20 -14z"/>
<path d="M894 6398 c3 -13 6 -42 6 -64 0 -38 3 -42 28 -46 35 -5 51 11 54 54
3 29 0 33 -22 36 -24 3 -24 3 -6 -11 16 -11 17 -17 7 -36 -10 -18 -15 -20 -27
-10 -8 7 -14 24 -13 38 4 46 -1 61 -17 61 -12 0 -15 -6 -10 -22z"/>
<path d="M1477 6382 c-25 -28 -21 -69 8 -88 26 -17 45 -12 45 12 0 10 -6 13
-19 9 -12 -3 -21 0 -25 11 -9 22 3 37 25 31 22 -6 31 5 23 27 -8 21 -37 20
-57 -2z"/>
<path d="M849 5943 c0 -4 0 -70 1 -145 1 -114 -1 -139 -13 -144 -13 -4 -13
-10 -2 -32 7 -15 16 -44 19 -64 6 -31 4 -38 -9 -38 -8 0 -36 -10 -61 -21 -56
-27 -84 -76 -84 -149 0 -50 30 -130 49 -130 24 0 14 -36 -33 -117 -29 -49 -56
-97 -59 -108 -6 -14 -10 -16 -19 -7 -19 19 -29 14 -23 -11 4 -13 -1 -43 -9
-67 -8 -24 -14 -46 -12 -48 10 -9 86 86 86 108 1 14 10 39 21 55 10 17 22 37
26 45 4 8 20 37 36 64 30 48 31 48 72 43 23 -4 45 -3 49 0 3 3 21 8 38 10 41
4 81 46 101 104 l15 44 137 3 c128 2 137 1 142 -17 5 -18 8 -19 36 -6 18 7 40
16 50 19 24 7 22 26 -3 26 -12 0 -32 7 -46 16 -23 16 -26 16 -37 0 -11 -14
-30 -16 -146 -14 l-133 3 -18 44 c-20 51 -56 84 -111 100 -21 7 -39 14 -39 17
0 3 7 28 16 56 12 36 14 52 6 57 -7 4 -12 59 -14 156 -2 108 -6 149 -15 153
-7 2 -13 0 -14 -5z m67 -462 c59 -27 94 -77 94 -133 0 -110 -115 -180 -210
-129 -54 28 -73 61 -73 124 0 67 26 108 86 137 52 24 53 24 103 1z"/>
<path d="M853 5408 c-8 -13 -29 -67 -40 -102 -6 -19 -5 -19 18 -3 32 23 55 21
72 -4 24 -34 31 -3 9 44 -11 23 -22 50 -25 60 -7 20 -22 22 -34 5z m27 -48 c0
-11 -7 -20 -15 -20 -17 0 -18 2 -9 24 9 23 24 20 24 -4z"/>
<path d="M3327 5887 c-4 -10 -7 -28 -6 -40 0 -21 1 -21 10 2 5 14 8 32 7 40
-3 13 -5 13 -11 -2z"/>
<path d="M3300 5705 c0 -62 -2 -73 -15 -69 -10 4 -15 0 -15 -14 0 -11 7 -25
15 -32 8 -7 15 -21 15 -31 0 -31 16 -21 35 22 18 38 18 42 2 50 -13 8 -17 25
-17 79 0 40 -4 70 -10 70 -6 0 -10 -32 -10 -75z"/>
<path d="M1553 5516 c-38 -17 -66 -42 -81 -72 -18 -34 -31 -103 -21 -110 5 -3
9 -16 9 -29 0 -13 14 -41 32 -61 l32 -36 -20 -37 c-11 -20 -33 -61 -49 -91
-17 -30 -33 -57 -36 -60 -3 -3 -9 -13 -12 -24 -6 -15 -10 -16 -22 -6 -12 10
-15 9 -15 -8 0 -12 -7 -42 -16 -68 -8 -25 -13 -48 -10 -51 11 -11 89 89 91
116 1 14 28 69 59 121 l57 95 75 -1 c76 -1 76 -1 94 -35 10 -19 21 -41 24 -49
4 -8 22 -40 41 -70 19 -30 30 -56 25 -58 -14 -5 -12 -32 3 -32 6 0 25 -11 41
-25 16 -14 31 -23 34 -21 2 3 -1 27 -8 54 -8 35 -16 49 -27 48 -9 0 -26 19
-42 49 -14 28 -36 64 -49 82 -12 17 -22 36 -22 42 0 6 -4 11 -10 11 -12 0 -13
37 -1 42 24 9 61 83 61 122 0 117 -134 208 -237 162z m154 -43 c40 -37 53 -64
53 -112 0 -58 -14 -87 -61 -121 -48 -34 -93 -39 -145 -14 -54 26 -79 69 -78
135 1 92 50 138 145 139 47 0 60 -4 86 -27z"/>
<path d="M1560 5364 l0 -65 43 3 42 3 2 50 c2 60 -9 75 -53 75 l-34 0 0 -66z
m58 28 c2 -7 -6 -12 -17 -12 -21 0 -27 11 -14 24 9 9 26 2 31 -12z m2 -56 c0
-17 -27 -29 -35 -16 -4 6 -3 15 0 20 9 15 35 12 35 -4z"/>
<path d="M4000 5523 c-42 -13 -64 -31 -86 -69 -43 -72 -32 -167 25 -218 22
-20 27 -42 12 -48 -12 -4 -101 -175 -101 -194 0 -13 -3 -13 -17 2 -17 17 -18
16 -23 -27 -3 -24 -12 -55 -19 -67 -22 -41 -4 -36 45 13 33 32 44 49 36 54 -9
5 6 39 51 117 l63 109 54 -3 c91 -5 163 39 177 110 5 25 10 28 44 28 53 0 54
28 2 32 -35 3 -38 6 -45 43 -18 87 -130 147 -218 118z m137 -40 c55 -36 76
-117 48 -188 -14 -37 -25 -49 -60 -65 -24 -11 -56 -20 -70 -20 -35 0 -84 26
-117 63 -24 26 -28 39 -28 87 0 52 3 60 35 93 20 20 48 40 63 43 15 3 32 7 37
9 17 6 68 -7 92 -22z"/>
<path d="M4010 5359 l0 -71 37 7 c52 10 53 10 49 64 -4 63 -10 71 -52 71 l-34
0 0 -71z m58 33 c2 -7 -6 -12 -17 -12 -21 0 -27 11 -14 24 9 9 26 2 31 -12z
m8 -53 c7 -12 -15 -31 -31 -26 -5 2 -11 11 -13 20 -4 19 32 24 44 6z"/>
<path d="M3269 5506 c-56 -18 -82 -40 -108 -91 -21 -43 -22 -52 -12 -102 6
-30 20 -66 31 -80 26 -34 26 -42 -10 -105 -17 -29 -38 -69 -48 -88 -20 -41
-30 -50 -49 -43 -9 4 -13 -4 -13 -28 0 -19 -7 -47 -15 -63 -10 -20 -12 -33 -6
-39 7 -7 13 -4 17 8 4 11 23 33 41 51 19 19 31 38 27 47 -4 12 28 81 46 97 3
3 18 31 35 63 16 31 32 57 35 57 3 -1 16 -7 30 -15 35 -20 63 -18 110 6 48 25
76 59 91 110 l12 38 81 3 c132 5 186 0 186 -19 0 -15 2 -15 18 0 10 10 27 17
38 17 11 0 28 6 38 13 17 12 14 15 -28 27 -25 7 -46 17 -46 21 0 5 -4 9 -10 9
-5 0 -10 -9 -10 -20 0 -19 -7 -20 -134 -20 l-135 0 -25 54 c-26 55 -51 78 -98
89 -14 4 -32 9 -40 11 -7 2 -29 -1 -49 -8z m83 -28 c42 -13 94 -64 104 -103
11 -45 -6 -97 -45 -136 -63 -64 -140 -65 -198 -3 -70 75 -50 199 41 239 40 17
50 18 98 3z"/>
<path d="M3290 5389 c-23 -42 -39 -99 -29 -104 5 -4 12 1 15 9 8 21 54 20 70
-1 19 -27 28 -8 14 29 -29 76 -35 88 -47 88 -7 0 -17 -9 -23 -21z m40 -51 c0
-5 -7 -8 -15 -8 -15 0 -20 21 -8 33 7 7 23 -11 23 -25z"/>
<path d="M4740 5492 c-69 -44 -75 -55 -75 -141 0 -80 18 -123 58 -136 24 -9
21 -28 -13 -83 -16 -26 -41 -74 -55 -105 -27 -58 -39 -68 -49 -42 -10 27 -28
17 -21 -13 3 -15 -1 -47 -9 -70 -8 -23 -12 -42 -8 -42 15 0 94 88 84 94 -6 4
11 42 40 93 75 131 72 128 126 130 26 1 58 3 71 5 21 3 30 -7 60 -62 20 -36
45 -78 55 -94 15 -21 17 -32 9 -44 -8 -13 -3 -21 21 -37 17 -11 35 -31 41 -43
5 -12 15 -22 22 -22 16 0 17 12 2 27 -6 6 -12 34 -12 62 -2 49 -9 62 -22 41
-11 -18 -22 -11 -36 23 -7 17 -17 37 -21 42 -5 6 -24 36 -42 67 l-34 57 30 41
c35 48 46 110 29 163 -16 47 -82 107 -110 100 -28 -7 -27 -19 3 -27 37 -9 86
-82 86 -128 0 -50 -25 -99 -64 -124 -52 -35 -85 -37 -136 -12 -56 28 -96 99
-86 151 10 53 42 96 86 113 38 15 48 33 24 41 -5 2 -30 -10 -54 -25z"/>
<path d="M6612 5509 c-29 -11 -42 -24 -70 -70 -38 -63 -24 -160 31 -212 25
-22 25 -22 6 -57 -10 -19 -21 -42 -25 -50 -4 -8 -28 -52 -53 -97 -36 -65 -50
-81 -63 -77 -15 4 -18 -1 -18 -26 0 -17 -5 -40 -10 -51 -20 -37 1 -39 37 -4
20 19 40 35 46 35 5 0 4 7 -3 15 -12 15 -10 20 73 165 11 19 27 47 34 62 19
38 25 40 103 43 l67 3 33 -62 c18 -33 38 -68 45 -76 23 -27 59 -105 60 -126 0
-22 68 -104 85 -104 13 0 13 17 -1 22 -6 2 -12 30 -14 63 -3 33 -4 62 -5 64 0
3 -5 0 -12 -7 -18 -18 -24 -15 -42 21 -9 17 -22 41 -29 51 -29 47 -74 123 -87
149 -12 24 -12 29 2 40 27 21 58 90 58 130 0 52 -32 111 -77 142 -30 20 -50
25 -93 24 -30 0 -65 -4 -78 -10z m149 -32 c78 -52 91 -166 28 -233 -11 -12
-40 -27 -65 -34 -81 -23 -157 25 -177 110 -14 59 32 147 88 170 38 16 91 11
126 -13z"/>
<path d="M6655 5406 c-23 -17 -27 -85 -6 -110 17 -20 65 -21 81 -1 17 21 6 29
-20 15 -39 -21 -68 36 -40 80 7 12 12 12 34 0 30 -16 45 -7 26 15 -16 19 -50
19 -75 1z"/>
<path d="M5885 5496 c-40 -17 -91 -77 -100 -116 -12 -53 3 -118 36 -154 l29
-33 -30 -54 c-17 -30 -43 -80 -58 -111 -24 -53 -42 -73 -42 -48 0 6 -4 10 -10
10 -5 0 -10 -17 -10 -38 0 -24 -7 -46 -20 -60 -24 -25 -25 -32 -6 -32 7 0 34
20 59 44 37 35 43 45 30 50 -14 6 -14 9 -2 24 8 9 25 37 38 62 13 25 29 52 35
60 7 8 18 27 25 41 13 26 16 27 84 24 68 -3 72 -4 94 -36 13 -18 23 -39 23
-45 0 -7 3 -14 8 -16 15 -6 63 -114 57 -129 -3 -9 12 -31 39 -58 l45 -44 -6
39 c-8 54 -21 86 -32 80 -5 -3 -19 13 -31 37 -12 23 -40 75 -62 115 l-40 74
32 31 c37 36 50 65 50 111 0 76 -37 136 -105 167 -47 22 -88 23 -130 5z m154
-44 c32 -24 67 -118 57 -155 -3 -16 -21 -44 -40 -64 -28 -31 -40 -37 -88 -41
-58 -4 -93 10 -130 53 -67 78 -30 202 70 231 44 12 95 3 131 -24z"/>
<path d="M5931 5378 c-13 -34 -31 -94 -31 -101 0 -16 18 -5 23 13 7 28 50 26
70 -2 l16 -23 0 23 c1 12 -3 30 -8 40 -5 9 -14 29 -20 45 -13 33 -38 35 -50 5z
m29 -33 c0 -8 -4 -15 -10 -15 -5 0 -10 7 -10 15 0 8 5 15 10 15 6 0 10 -7 10
-15z"/>
<path d="M6865 5460 c3 -5 8 -10 11 -10 2 0 4 5 4 10 0 6 -5 10 -11 10 -5 0
-7 -4 -4 -10z"/>
<path d="M157 5403 c-7 -62 2 -143 17 -143 15 0 15 182 0 187 -7 2 -13 -16
-17 -44z"/>
<path d="M226 5411 c-10 -11 -13 -21 -7 -25 5 -4 12 -2 16 4 3 5 15 10 26 10
29 0 24 -33 -11 -63 -41 -37 -39 -57 5 -57 19 0 35 5 35 10 0 6 -7 10 -15 10
-20 0 -19 7 5 37 26 33 25 58 -2 77 -28 20 -31 20 -52 -3z"/>
<path d="M327 5348 c1 -46 3 -87 3 -93 0 -5 5 -3 10 5 11 17 13 112 4 148 -12
44 -19 20 -17 -60z"/>
<path d="M4794 5403 c-6 -5 -17 -19 -23 -31 -15 -28 1 -77 30 -92 23 -13 69 4
69 25 0 17 -16 20 -25 5 -11 -18 -43 -11 -50 11 -16 51 20 89 54 57 10 -11 12
-9 9 7 -3 21 -43 32 -64 18z"/>
<path d="M4520 5371 c0 -6 -9 -11 -20 -11 -11 0 -20 -7 -20 -15 0 -8 9 -15 20
-15 15 0 20 -7 20 -26 0 -23 2 -25 16 -13 9 8 35 21 58 31 l41 16 -35 15 c-58
24 -80 29 -80 18z"/>
<path d="M4347 5353 c-16 -16 -4 -23 38 -23 33 0 45 4 45 15 0 11 -11 15 -38
15 -21 0 -42 -3 -45 -7z"/>
<path d="M1980 4902 c-45 -6 -89 -32 -117 -69 -24 -31 -28 -46 -28 -104 0 -61
3 -71 33 -108 25 -32 31 -45 23 -55 -6 -7 -27 -44 -47 -82 -19 -38 -40 -73
-45 -78 -5 -6 -9 -18 -9 -27 0 -22 -19 -29 -43 -17 -16 8 -18 7 -13 -10 4 -11
2 -23 -4 -27 -6 -3 -7 -11 -4 -17 4 -5 -3 -23 -15 -39 -12 -17 -17 -29 -10
-29 14 0 99 77 93 83 -8 8 29 80 94 182 6 11 17 30 22 43 9 21 15 23 77 20
l68 -3 62 -105 c41 -69 59 -108 53 -114 -7 -7 3 -23 27 -48 20 -21 40 -38 45
-38 4 0 2 17 -5 38 -7 20 -12 44 -12 52 0 8 -6 14 -13 12 -7 -1 -15 6 -19 15
-3 10 -14 29 -23 43 -10 14 -34 56 -55 94 l-38 69 30 26 c49 42 65 112 40 181
-17 49 -24 58 -65 84 -43 26 -67 33 -102 28z m69 -38 c56 -22 95 -89 88 -151
-6 -53 -43 -97 -95 -114 -46 -15 -120 -4 -149 23 -55 51 -55 154 0 205 60 57
89 64 156 37z"/>
<path d="M1971 4793 c-21 -14 -29 -71 -15 -107 7 -18 79 -23 89 -6 10 16 -5
34 -18 21 -33 -33 -71 14 -47 58 12 23 30 27 48 9 16 -16 28 -2 13 16 -18 21
-47 25 -70 9z"/>
<path d="M1270 4716 l0 -73 32 -7 c38 -7 58 11 58 54 0 30 -17 50 -42 50 -11
0 -23 11 -28 25 -15 41 -20 29 -20 -49z m65 -27 c0 -28 -29 -38 -39 -13 -7 19
11 47 28 41 6 -2 11 -14 11 -28z"/>
<path d="M5130 4755 c0 -32 -3 -35 -29 -35 -25 0 -29 -5 -34 -32 -8 -52 12
-82 56 -86 l37 -3 0 95 c0 79 -3 96 -15 96 -10 0 -15 -11 -15 -35z m-1 -64 c7
-13 6 -23 -3 -36 -16 -22 -36 -12 -36 19 0 39 22 49 39 17z"/>
<path d="M563 4744 c-3 -9 0 -20 8 -25 10 -6 10 -9 2 -9 -8 0 -13 -13 -13 -31
0 -28 2 -30 33 -27 29 3 32 6 35 41 3 39 -14 67 -43 67 -8 0 -18 -7 -22 -16z
m42 -64 c-3 -5 -10 -10 -16 -10 -5 0 -9 5 -9 10 0 6 7 10 16 10 8 0 12 -4 9
-10z"/>
<path d="M3752 4698 c3 -59 4 -62 31 -65 37 -5 57 12 57 48 0 29 -24 50 -48
42 -8 -3 -16 4 -19 16 -11 43 -24 19 -21 -41z m68 -18 c0 -25 -4 -30 -25 -30
-27 0 -35 26 -13 48 21 21 38 13 38 -18z"/>
<path d="M6157 4753 c-4 -3 -7 -39 -7 -79 l0 -73 33 5 c36 7 67 37 67 65 0 19
-38 51 -52 43 -4 -3 -12 6 -18 20 -10 28 -13 30 -23 19z m61 -85 c-2 -13 -10
-23 -18 -23 -8 0 -16 10 -18 23 -3 17 2 22 18 22 16 0 21 -5 18 -22z"/>
<path d="M7000 4735 c-5 -14 -17 -25 -28 -25 -26 0 -42 -20 -42 -51 0 -33 15
-46 60 -51 l35 -3 3 78 c3 79 -9 102 -28 52z m-5 -66 c8 -23 -7 -45 -24 -35
-12 8 -15 39 -4 49 12 12 22 7 28 -14z"/>
<path d="M4538 4729 c-18 -10 -24 -61 -12 -93 10 -27 84 -18 84 11 0 11 -7 13
-30 8 -28 -6 -30 -4 -30 20 0 24 3 26 25 21 31 -8 35 18 6 34 -23 12 -22 12
-43 -1z"/>
<path d="M2990 4714 c0 -11 6 -15 20 -11 27 7 26 -6 -2 -18 -26 -12 -31 -25
-18 -45 7 -11 15 -12 37 -4 51 17 40 94 -13 94 -15 0 -24 -6 -24 -16z m41 -47
c-1 -12 -15 -9 -19 4 -3 6 1 10 8 8 6 -3 11 -8 11 -12z"/>
<path d="M5637 4724 c-15 -15 -6 -26 18 -22 35 7 41 -8 7 -16 -46 -10 -54 -19
-43 -49 8 -20 18 -27 36 -27 14 0 25 5 25 11 0 8 5 8 15 -1 8 -7 15 -9 16 -4
2 15 -3 99 -5 101 -8 8 -62 13 -69 7z m53 -64 c0 -5 -4 -10 -10 -10 -5 0 -10
5 -10 10 0 6 5 10 10 10 6 0 10 -4 10 -10z"/>
<path d="M6360 4699 c-15 -26 -3 -76 20 -89 13 -7 22 -4 35 10 18 19 17 20
-13 20 -25 0 -32 4 -32 20 0 25 29 38 41 19 7 -11 9 -9 9 7 0 20 -17 34 -40
34 -5 0 -14 -9 -20 -21z"/>
<path d="M1980 4445 c0 -14 -6 -34 -12 -45 -10 -16 -10 -24 0 -40 8 -13 12
-67 12 -165 0 -90 4 -145 10 -145 6 0 10 56 10 147 0 117 3 150 15 163 14 15
14 20 0 46 -8 16 -15 37 -15 47 0 9 -4 17 -10 17 -5 0 -10 -11 -10 -25z"/>
<path d="M2273 4148 c-7 -15 -22 -28 -35 -30 -14 -2 -26 -13 -33 -32 -8 -24
-6 -31 14 -47 20 -17 52 -18 69 -4 2 1 2 34 0 71 -3 63 -4 67 -15 42z m-5 -75
c-3 -30 -25 -42 -34 -19 -9 22 2 46 21 46 12 0 15 -8 13 -27z"/>
<path d="M1657 4123 c-9 -8 -9 -56 -1 -77 8 -20 74 -22 74 -3 0 8 -10 13 -22
13 -17 -1 -23 5 -23 19 0 16 6 20 28 18 24 -2 26 0 17 18 -10 19 -59 27 -73
12z"/>
<path d="M1199 3963 c-1 -4 0 -67 1 -140 2 -129 1 -131 -19 -126 -26 7 -26 1
3 -61 l22 -50 18 49 c14 36 16 50 7 53 -9 3 -12 42 -10 140 1 92 -2 137 -10
140 -6 2 -11 0 -12 -5z"/>
<path d="M3060 3812 c0 -85 -4 -122 -12 -124 -9 -3 -8 -16 4 -53 14 -47 16
-48 27 -26 14 25 15 40 9 200 -2 79 -7 116 -16 119 -9 3 -12 -26 -12 -116z"/>
<path d="M4175 3853 c3 -43 8 -97 10 -120 4 -38 2 -43 -15 -43 -11 0 -20 -4
-20 -10 0 -5 4 -10 9 -10 5 0 12 -17 16 -38 10 -61 22 -72 31 -26 3 21 11 48
16 58 8 14 6 21 -6 28 -13 7 -16 29 -16 123 0 95 -3 115 -15 115 -12 0 -14
-13 -10 -77z"/>
<path d="M2295 3553 c-68 -14 -116 -59 -128 -120 -9 -45 8 -129 33 -163 l21
-29 -41 -71 c-22 -40 -40 -74 -40 -76 0 -2 -11 -22 -25 -44 -14 -22 -25 -46
-25 -55 0 -8 -7 -15 -15 -15 -8 0 -15 7 -15 15 0 8 -4 15 -10 15 -5 0 -10 -12
-10 -27 0 -16 -9 -47 -20 -70 -10 -24 -16 -43 -11 -43 13 0 104 90 98 96 -3 4
10 36 30 73 20 36 47 86 59 110 37 70 39 70 120 70 40 0 78 2 82 5 11 7 37
-20 51 -54 6 -14 29 -54 51 -89 22 -34 40 -68 40 -75 0 -7 5 -17 12 -24 8 -8
8 -15 -2 -26 -10 -13 -8 -17 14 -26 15 -5 35 -23 44 -40 27 -48 44 -31 23 22
-5 13 -12 36 -16 51 -3 18 -11 27 -21 25 -10 -2 -24 13 -37 37 -12 22 -44 79
-70 127 l-48 87 26 41 c14 22 28 60 31 84 15 107 -95 210 -201 189z m128 -61
c66 -68 70 -157 9 -215 -60 -58 -143 -56 -202 3 -98 98 -34 250 105 250 46 0
55 -4 88 -38z"/>
<path d="M2309 3374 c-25 -52 -25 -80 1 -49 17 20 60 19 76 -2 12 -16 13 -17
14 -1 0 9 -7 29 -14 45 -8 15 -17 36 -20 46 -10 31 -31 17 -57 -39z m61 -6 c0
-4 -9 -8 -20 -8 -20 0 -28 29 -13 44 7 7 33 -21 33 -36z"/>
<path d="M1120 3529 c-39 -23 -80 -93 -80 -137 0 -43 20 -94 49 -125 l26 -28
-19 -32 c-11 -18 -26 -45 -34 -62 -8 -16 -23 -42 -34 -57 -10 -14 -18 -33 -18
-42 0 -9 -4 -16 -10 -16 -5 0 -10 5 -10 10 0 6 -7 10 -16 10 -8 0 -13 -3 -10
-8 2 -4 0 -29 -5 -56 -5 -27 -8 -51 -6 -53 2 -2 20 11 41 29 23 19 35 37 31
46 -3 8 20 59 52 113 l56 98 51 -2 c28 -1 67 1 86 6 35 7 37 6 58 -35 32 -64
82 -152 93 -162 13 -14 11 -46 -3 -46 -6 0 -2 -10 9 -22 11 -13 18 -29 15 -37
-3 -9 0 -12 10 -8 8 3 23 -4 32 -15 10 -11 20 -17 23 -14 10 10 -29 126 -42
126 -6 0 -18 12 -26 28 -7 15 -24 44 -37 64 -22 34 -23 38 -8 60 18 25 22 88
6 88 -5 0 -10 -13 -10 -29 0 -33 -9 -61 -19 -61 -4 0 -18 21 -30 46 -20 39
-21 47 -9 62 66 81 51 203 -32 260 -44 30 -130 30 -180 1z m168 -21 c47 -29
76 -95 67 -153 -5 -34 -15 -52 -46 -79 -34 -32 -45 -36 -93 -36 -70 0 -114 29
-140 93 -18 43 -18 50 -5 94 28 91 136 131 217 81z"/>
<path d="M1170 3374 l0 -65 38 3 c35 3 37 5 40 42 6 68 -4 86 -43 86 l-35 0 0
-66z m63 42 c3 -12 -30 -32 -39 -24 -11 12 5 40 21 36 9 -2 17 -7 18 -12z m1
-77 c-3 -5 -14 -9 -25 -9 -21 0 -27 35 -6 43 14 5 39 -22 31 -34z"/>
<path d="M2969 3525 c-34 -25 -68 -84 -69 -117 0 -12 -8 -18 -25 -18 -14 0
-25 -4 -25 -10 0 -5 10 -10 23 -10 18 0 26 -9 36 -37 33 -95 90 -129 194 -117
54 6 54 6 70 -28 9 -19 35 -66 57 -104 39 -67 50 -104 30 -104 -5 0 -10 -4
-10 -10 0 -5 8 -10 17 -10 20 0 73 -48 73 -67 0 -14 12 -17 23 -6 4 3 3 11 -2
17 -4 6 -14 32 -21 59 -8 31 -18 47 -29 47 -9 0 -27 21 -41 48 -13 26 -39 73
-57 104 -32 54 -42 98 -25 98 5 0 17 15 27 33 27 51 18 167 -15 202 -38 41
-73 55 -138 55 -46 0 -65 -5 -93 -25z m177 -14 c36 -22 74 -93 74 -137 -1 -43
-31 -96 -67 -117 -44 -25 -127 -25 -162 0 -70 52 -88 127 -48 197 40 71 136
98 203 57z"/>
<path d="M3027 3433 c-4 -3 -7 -33 -7 -65 l0 -59 43 3 42 3 1 45 c0 60 -11 80
-45 80 -15 0 -31 -3 -34 -7z m47 -19 c20 -8 11 -24 -15 -24 -10 0 -19 7 -19
15 0 16 9 19 34 9z m11 -63 c7 -12 -29 -33 -39 -24 -3 3 -6 12 -6 20 0 15 36
18 45 4z"/>
<path d="M4111 3535 c-45 -25 -79 -64 -85 -100 -12 -61 3 -125 39 -163 l31
-35 -54 -90 c-30 -49 -59 -103 -64 -118 -11 -31 -18 -35 -35 -18 -18 18 -35 1
-21 -21 10 -16 9 -29 -5 -66 -9 -26 -15 -49 -12 -52 2 -3 24 17 49 44 30 34
41 53 34 61 -9 11 0 30 49 108 7 11 27 48 44 83 33 66 39 71 59 47 19 -23 94
-19 134 7 38 25 86 92 86 120 0 16 12 18 134 18 98 0 136 -3 139 -12 3 -10 9
-10 24 -2 10 6 33 15 51 19 35 7 44 25 12 25 -11 0 -36 7 -55 14 -31 13 -35
13 -35 0 0 -11 -24 -14 -134 -14 l-133 0 -7 32 c-8 39 -59 94 -105 114 -41 17
-108 17 -140 -1z m156 -38 c74 -49 93 -133 47 -201 -30 -44 -76 -66 -136 -66
-48 1 -60 8 -103 65 -25 33 -30 49 -28 89 1 60 24 93 84 124 51 26 85 24 136
-11z"/>
<path d="M4175 3398 c-4 -13 -14 -37 -23 -55 -17 -33 -10 -55 10 -35 18 18 59
15 75 -5 13 -16 14 -14 8 22 -13 80 -55 124 -70 73z m41 -29 c8 -14 -11 -33
-25 -25 -11 7 -4 36 9 36 5 0 12 -5 16 -11z"/>
<path d="M4842 3500 c-48 -34 -60 -53 -63 -101 -6 -88 0 -115 36 -150 l34 -34
-37 -65 c-20 -36 -47 -86 -60 -112 -25 -51 -31 -55 -50 -36 -9 9 -12 2 -12
-33 0 -24 -7 -53 -15 -63 -8 -11 -15 -26 -15 -33 0 -23 18 -14 40 21 11 19 30
38 41 41 15 5 19 13 15 29 -3 12 1 32 9 46 8 14 19 34 25 45 5 11 25 47 43 80
l33 60 52 -3 c36 -3 60 1 77 12 13 9 27 16 30 16 7 0 145 -235 145 -247 0 -1
-7 -3 -16 -3 -22 0 -16 -9 44 -64 56 -52 57 -52 42 3 -5 20 -12 48 -15 63 -3
16 -10 25 -18 23 -7 -3 -31 28 -60 77 -26 46 -59 99 -72 120 l-24 36 20 26
c11 14 27 45 35 69 14 40 13 48 -3 93 -13 34 -31 58 -61 81 -38 29 -51 33
-101 33 -48 0 -65 -5 -99 -30z m185 -17 c31 -20 63 -83 63 -122 0 -73 -75
-141 -156 -141 -54 0 -83 18 -119 72 -48 73 -22 162 58 199 48 22 113 18 154
-8z"/>
<path d="M4892 3343 l3 -68 35 0 35 0 0 65 0 65 -38 3 -38 3 3 -68z m68 27 c0
-4 -9 -10 -20 -13 -23 -6 -38 12 -20 23 14 9 40 2 40 -10z m-4 -69 c-10 -15
-46 -14 -46 2 0 7 5 18 12 25 10 10 15 9 26 -2 8 -8 11 -19 8 -25z"/>
<path d="M167 3494 c-11 -12 -8 -152 4 -159 17 -11 20 0 10 45 -6 28 -6 52 1
72 10 29 0 57 -15 42z"/>
<path d="M215 3470 c-4 -6 6 -10 24 -10 36 0 49 -17 26 -34 -16 -12 -16 -13
-1 -19 20 -8 21 -36 1 -43 -8 -4 -22 -1 -30 6 -20 17 -32 5 -15 -15 15 -18 56
-20 66 -3 12 18 12 101 1 116 -11 14 -63 16 -72 2z"/>
<path d="M325 3418 c0 -35 -4 -70 -8 -79 -5 -11 -3 -18 7 -22 22 -9 34 95 15
134 -14 29 -14 28 -14 -33z"/>
<path d="M2606 3405 c-15 -8 -39 -15 -52 -15 -41 0 -37 -19 6 -26 22 -4 43
-11 46 -15 9 -15 34 -10 34 6 0 8 7 15 15 15 8 0 15 5 15 10 0 6 -6 10 -14 10
-8 0 -16 7 -18 15 -3 13 -6 13 -32 0z"/>
<path d="M2710 3374 c0 -12 10 -14 47 -12 66 4 70 28 4 28 -39 0 -51 -4 -51
-16z"/>
<path d="M748 2902 c-45 -33 -59 -61 -65 -134 -5 -61 4 -86 46 -131 25 -27 25
-29 9 -55 -9 -15 -25 -45 -36 -67 -34 -73 -72 -126 -88 -123 -12 2 -16 -9 -19
-47 -1 -27 -6 -58 -10 -67 -4 -11 -3 -18 4 -18 6 0 11 4 11 10 0 5 16 27 35
48 25 29 31 42 23 50 -8 8 -5 21 13 49 14 21 36 60 49 86 14 26 34 59 45 73
18 22 23 24 49 15 19 -8 39 -8 65 -1 20 5 39 10 43 10 3 0 21 -26 39 -57 18
-32 36 -59 41 -61 4 -2 8 -10 8 -18 0 -8 11 -32 25 -54 28 -44 31 -60 13 -60
-8 -1 -4 -8 7 -18 11 -9 31 -32 43 -50 28 -39 48 -33 27 8 -8 16 -15 43 -15
61 0 24 -4 30 -16 25 -10 -4 -20 4 -30 27 -8 17 -20 41 -27 52 -6 11 -29 46
-49 79 -21 33 -38 64 -38 69 0 4 15 26 33 49 29 37 32 46 31 105 -2 55 -6 70
-31 101 -61 76 -165 96 -235 44z m155 -7 c20 -8 48 -31 64 -51 23 -31 28 -47
28 -95 0 -52 -4 -62 -33 -92 -48 -49 -98 -59 -164 -33 -86 35 -119 115 -79
194 23 44 46 66 86 80 42 15 57 14 98 -3z"/>
<path d="M822 2772 c-25 -55 -29 -83 -10 -64 15 15 78 16 78 0 0 -6 3 -9 6 -5
10 10 -27 117 -41 117 -6 0 -21 -22 -33 -48z m43 -22 c-3 -6 -10 -10 -16 -10
-10 0 -12 33 -2 44 9 9 26 -22 18 -34z"/>
<path d="M2580 2721 c0 -67 1 -71 23 -71 35 1 57 24 57 59 0 27 -4 32 -30 38
-16 3 -30 11 -30 19 0 7 -4 16 -10 19 -6 4 -10 -20 -10 -64z m63 -10 c5 -21
-9 -41 -29 -41 -13 0 -23 28 -17 48 7 19 40 14 46 -7z"/>
<path d="M4623 2754 c4 -22 7 -54 7 -71 0 -26 4 -33 20 -33 17 0 18 3 9 19
-15 22 -5 51 16 51 9 0 15 -9 15 -25 0 -14 5 -25 11 -25 6 0 9 14 7 33 -2 26
-8 33 -30 35 -18 2 -28 10 -30 24 -2 12 -9 24 -17 26 -11 4 -13 -3 -8 -34z"/>
<path d="M1480 2750 c-11 -11 -20 -27 -20 -36 0 -24 19 -54 35 -54 8 0 15 -7
15 -15 0 -8 5 -15 11 -15 6 0 9 6 6 14 -3 9 4 21 19 30 13 9 24 24 24 33 0 14
-4 13 -23 -5 -28 -26 -43 -28 -51 -6 -9 24 13 47 30 33 18 -15 20 11 2 29 -17
17 -25 15 -48 -8z"/>
<path d="M1989 2758 c-12 -10 -15 -26 -11 -61 4 -47 5 -48 36 -44 28 3 31 7
34 41 3 29 -2 42 -19 57 -26 23 -22 22 -40 7z m31 -28 c0 -5 -4 -10 -10 -10
-5 0 -10 5 -10 10 0 6 5 10 10 10 6 0 10 -4 10 -10z m0 -40 c0 -5 -4 -10 -10
-10 -5 0 -10 5 -10 10 0 6 5 10 10 10 6 0 10 -4 10 -10z"/>
<path d="M3311 2746 c-7 -8 -11 -32 -9 -53 3 -32 7 -38 29 -41 14 -2 31 4 39
13 17 21 4 32 -21 17 -16 -10 -20 -10 -25 3 -10 26 4 47 27 40 17 -6 20 -3 17
12 -4 23 -41 29 -57 9z"/>
<path d="M3855 2749 c-5 -7 -1 -17 9 -25 11 -8 13 -14 7 -19 -6 -3 -11 -17
-11 -31 0 -21 4 -24 40 -24 40 0 40 0 40 39 0 21 -6 43 -13 49 -21 18 -64 25
-72 11z m55 -69 c0 -5 -4 -10 -10 -10 -5 0 -10 5 -10 10 0 6 5 10 10 10 6 0
10 -4 10 -10z"/>
<path d="M5201 2726 c-16 -19 -5 -75 16 -83 18 -7 66 14 59 26 -4 5 -15 7 -26
4 -16 -4 -20 0 -20 21 0 19 5 25 18 23 9 -1 19 3 22 8 8 17 -55 18 -69 1z"/>
<path d="M6059 2583 c0 -5 -1 -54 0 -111 0 -76 -3 -104 -13 -108 -15 -6 -10
-43 9 -81 12 -23 25 -21 25 5 0 7 9 27 21 43 l20 29 -20 0 c-20 0 -21 6 -21
93 0 55 5 98 11 104 6 6 8 16 5 22 -8 12 -35 15 -37 4z"/>
<path d="M840 2497 c0 -12 -7 -33 -16 -45 -15 -21 -15 -25 1 -42 14 -15 16
-39 13 -171 -2 -114 0 -153 9 -156 10 -4 11 31 6 155 -6 158 -5 160 16 172 15
8 19 15 13 23 -5 7 -12 29 -16 50 -8 40 -26 51 -26 14z"/>
<path d="M6022 2205 c-53 -16 -66 -26 -91 -76 -34 -65 -27 -149 18 -196 31
-32 30 -36 -29 -138 -13 -22 -36 -66 -52 -98 -22 -44 -33 -57 -46 -53 -14 5
-17 -3 -20 -49 -1 -30 1 -55 6 -55 19 0 64 59 58 76 -4 10 8 42 31 83 61 108
81 145 93 169 9 21 14 23 43 16 17 -5 49 -8 69 -9 41 0 51 -10 100 -100 63
-113 72 -136 62 -143 -5 -4 9 -25 35 -51 l44 -44 -8 49 c-4 27 -7 59 -6 72 0
12 -4 22 -9 22 -6 0 -10 -4 -10 -10 0 -20 -21 -9 -33 18 -6 15 -14 29 -17 32
-3 3 -14 23 -25 45 -11 22 -22 42 -26 45 -3 3 -13 22 -23 43 -17 38 -17 39 3
61 85 91 54 266 -52 291 -54 13 -71 13 -115 0z m113 -25 c125 -57 107 -237
-27 -279 -32 -11 -43 -10 -80 7 -129 58 -136 197 -13 273 38 24 66 24 120 -1z"/>
<path d="M6032 2048 c3 -61 4 -63 33 -66 35 -4 57 20 50 55 -16 76 -14 73 -51
73 l-35 0 3 -62z m53 32 c0 -22 -29 -18 -33 3 -3 14 1 18 15 15 10 -2 18 -10
18 -18z m5 -66 c0 -18 -36 -18 -43 0 -8 20 13 38 30 25 7 -7 13 -18 13 -25z"/>
<path d="M1098 2109 c-1 -34 1 -63 5 -66 5 -3 24 -2 43 1 33 7 34 8 34 53 0
44 -1 45 -26 40 -20 -3 -28 0 -31 14 -10 37 -21 18 -25 -42z m57 -19 c0 -13
-6 -25 -12 -27 -16 -6 -27 21 -19 43 9 23 31 11 31 -16z"/>
<path d="M567 2128 c9 -10 6 -19 -13 -37 -21 -20 -23 -26 -12 -37 8 -8 23 -11
36 -7 20 5 23 11 20 47 -2 31 -8 42 -23 45 -15 3 -17 1 -8 -11z m13 -47 c0 -6
-4 -13 -10 -16 -5 -3 -10 1 -10 9 0 9 5 16 10 16 6 0 10 -4 10 -9z"/>
<path d="M3796 1953 c-3 -3 -6 -57 -6 -120 0 -94 -3 -113 -15 -113 -19 0 -19
-5 -1 -38 8 -15 17 -40 21 -56 8 -36 18 -25 35 38 10 38 11 51 2 54 -8 2 -12
39 -12 117 0 104 -6 135 -24 118z"/>
<path d="M1215 1830 c7 -107 6 -110 -14 -110 -26 0 -26 4 3 -56 l24 -49 11 28
c19 50 24 77 12 77 -7 0 -11 36 -11 110 0 94 -2 110 -16 110 -14 0 -15 -13 -9
-110z"/>
<path d="M1169 1567 c-97 -45 -135 -146 -89 -237 11 -21 30 -46 42 -55 l23
-16 -34 -62 c-19 -34 -37 -64 -40 -67 -4 -3 -15 -25 -26 -50 -10 -25 -34 -59
-52 -76 -29 -28 -44 -64 -27 -64 12 0 84 44 84 51 0 4 -6 9 -12 12 -10 3 -9 9
3 23 9 10 24 37 34 59 10 22 30 59 45 82 16 22 31 50 34 61 6 18 11 19 41 9
76 -23 173 33 195 111 l11 42 119 0 c100 0 120 -3 120 -15 0 -18 0 -18 38 1
17 8 47 18 67 21 28 4 36 2 41 -13 18 -55 30 -79 51 -100 29 -29 29 -35 -2
-84 -14 -22 -25 -46 -25 -55 0 -8 -3 -15 -7 -15 -5 0 -17 -18 -27 -40 -14 -29
-22 -37 -31 -30 -16 13 -25 2 -25 -32 0 -16 -5 -38 -11 -49 -6 -12 -8 -28 -4
-37 4 -12 12 -7 32 24 15 21 31 42 37 46 6 4 12 19 13 33 1 15 11 41 22 58 11
18 34 58 51 90 28 52 32 56 51 46 20 -10 62 -8 104 6 17 5 24 -1 39 -36 11
-24 35 -70 55 -103 24 -40 31 -61 23 -64 -17 -5 -15 -32 2 -32 8 0 28 -17 45
-37 17 -20 33 -34 37 -31 10 10 -27 118 -41 118 -6 0 -21 17 -32 38 -11 20
-36 64 -55 98 l-35 61 33 44 c28 37 34 53 34 97 0 59 -15 95 -57 133 -93 87
-252 32 -275 -96 -4 -26 -36 -30 -90 -11 -38 13 -44 13 -54 0 -9 -12 -35 -14
-125 -12 l-114 3 -10 30 c-36 107 -138 162 -226 122z m121 -29 c33 -17 52 -36
70 -70 23 -43 24 -50 12 -95 -29 -112 -162 -151 -239 -70 -75 78 -51 191 51
241 41 21 54 20 106 -6z m717 5 c57 -27 80 -58 88 -119 5 -40 2 -62 -11 -89
-20 -42 -54 -69 -68 -55 -14 14 -26 12 -26 -4 0 -41 -84 -29 -134 20 -80 77
-61 194 39 246 40 21 67 21 112 1z"/>
<path d="M1194 1467 c-3 -8 -4 -39 -2 -68 3 -53 4 -54 35 -57 41 -4 52 17 44
83 -6 48 -8 50 -39 53 -21 2 -34 -2 -38 -11z m52 -18 c10 -17 -13 -36 -27 -22
-12 12 -4 33 11 33 5 0 12 -5 16 -11z m4 -64 c0 -8 -9 -15 -20 -15 -20 0 -26
11 -13 23 12 13 33 7 33 -8z"/>
<path d="M1912 1458 c-16 -16 -15 -80 1 -102 18 -24 80 -19 85 8 3 15 0 17
-14 11 -43 -18 -59 -12 -62 25 -3 52 10 68 42 50 28 -14 50 -5 26 10 -21 14
-64 12 -78 -2z"/>
<path d="M3764 1559 c-45 -13 -105 -71 -113 -110 -5 -24 -14 -35 -31 -40 l-25
-7 23 -7 c13 -4 25 -18 29 -34 20 -86 63 -127 147 -141 50 -8 60 -6 97 14 47
27 86 79 91 122 l3 29 134 0 c115 0 135 -2 138 -16 4 -14 9 -15 41 -3 48 17
92 18 92 1 0 -26 41 -97 65 -113 l25 -17 -21 -36 c-52 -88 -100 -181 -92 -181
17 0 31 17 52 60 12 25 34 65 49 90 l28 44 78 2 77 1 24 -46 c14 -25 36 -66
50 -91 19 -33 22 -46 12 -52 -9 -6 -3 -16 19 -36 17 -15 39 -40 49 -56 14 -24
19 -26 26 -14 6 10 3 26 -6 44 -8 16 -15 44 -15 62 0 20 -5 32 -12 31 -28 -3
-37 3 -52 39 -9 20 -30 59 -47 87 -30 48 -30 50 -14 77 53 90 59 140 24 197
-26 43 -76 91 -95 91 -23 0 -15 -14 28 -45 55 -40 77 -97 60 -154 -15 -48 -57
-101 -81 -101 -9 0 -22 -5 -28 -11 -16 -16 -114 15 -138 43 -29 34 -45 65 -45
89 0 43 24 101 52 124 31 26 35 35 14 35 -19 0 -65 -55 -72 -88 -11 -45 -21
-51 -62 -40 -20 5 -46 19 -58 29 -22 20 -36 17 -27 -7 4 -12 -19 -14 -136 -14
-123 0 -141 2 -141 16 0 29 -43 94 -75 113 -39 23 -101 32 -141 20z m147 -59
c58 -60 66 -135 22 -193 -35 -45 -61 -57 -124 -57 -44 0 -55 5 -91 38 -35 33
-41 46 -45 89 -10 103 53 168 155 159 44 -4 59 -11 83 -36z"/>
<path d="M3774 1456 c-3 -7 -4 -38 -2 -67 3 -51 5 -54 32 -57 16 -2 33 1 38 6
11 11 18 96 9 109 -11 17 -71 24 -77 9z m52 -17 c10 -17 -13 -36 -27 -22 -12
12 -4 33 11 33 5 0 12 -5 16 -11z m8 -58 c8 -12 -21 -34 -34 -26 -17 11 -11
35 9 35 11 0 22 -4 25 -9z"/>
<path d="M2973 1537 c-19 -13 -41 -42 -53 -71 -32 -72 -22 -119 42 -208 10
-15 10 -22 -1 -40 -8 -13 -22 -36 -30 -53 -9 -16 -22 -36 -29 -44 -8 -8 -18
-25 -23 -38 -7 -18 -14 -23 -29 -18 -17 5 -20 2 -20 -27 0 -18 -7 -46 -15 -62
-18 -34 -18 -36 -2 -36 7 0 18 9 25 20 7 11 26 29 43 39 17 10 26 22 21 25
-12 7 -5 42 14 71 7 11 26 45 42 75 l31 55 68 1 c37 0 76 3 87 5 10 2 22 -3
26 -11 5 -8 31 -54 59 -101 54 -92 58 -104 39 -113 -9 -4 -7 -9 6 -18 28 -19
52 -43 64 -64 18 -32 24 -9 11 42 -8 33 -21 57 -40 72 -16 13 -29 27 -29 32 0
4 -22 46 -50 93 -27 47 -50 89 -50 94 0 6 9 18 20 28 11 10 25 36 32 58 14 48
28 54 81 36 31 -10 41 -11 45 -1 2 7 19 12 37 12 19 0 37 5 40 10 4 6 -9 10
-33 10 -45 0 -56 8 -40 27 20 25 2 24 -43 -2 -61 -34 -74 -32 -87 14 -8 24
-28 53 -53 75 -39 34 -45 36 -108 35 -50 -1 -74 -6 -98 -22z m148 -1 c89 -37
124 -134 78 -216 -38 -67 -139 -91 -206 -50 -43 26 -75 97 -67 148 7 47 57
104 104 119 48 15 53 15 91 -1z"/>
<path d="M3045 1438 c-4 -13 -13 -38 -22 -56 -17 -39 -11 -52 15 -29 23 21 56
22 72 2 23 -28 21 -9 -4 49 -26 59 -50 72 -61 34z m43 -31 c2 -12 -3 -17 -17
-17 -23 0 -24 1 -15 25 8 19 28 15 32 -8z"/>
<path d="M5646 1545 c-15 -8 -34 -15 -40 -15 -16 0 -66 -52 -66 -68 0 -7 -4
-12 -10 -12 -5 0 -10 -24 -10 -53 0 -60 27 -127 61 -151 l22 -15 -23 -38 c-33
-55 -55 -94 -75 -133 -16 -32 -18 -33 -31 -15 -19 25 -25 15 -29 -44 -1 -28
-8 -58 -15 -66 -7 -9 -10 -18 -6 -22 3 -4 23 12 44 35 21 23 44 42 50 42 8 0
10 9 6 24 -4 16 7 45 40 100 25 43 46 85 46 93 0 10 6 13 18 8 37 -14 70 -16
105 -7 29 8 38 7 51 -7 9 -10 16 -21 16 -24 0 -4 11 -25 25 -47 14 -22 25 -46
25 -55 0 -8 3 -15 8 -15 4 0 13 -10 21 -21 11 -18 11 -23 -1 -30 -10 -7 -1
-20 35 -55 26 -26 49 -45 50 -43 2 2 -4 31 -13 64 -12 48 -19 60 -33 57 -10
-2 -20 4 -23 15 -10 32 -28 67 -61 120 -18 29 -33 55 -33 59 0 5 11 19 24 33
37 39 54 111 37 158 -25 71 -61 109 -110 120 -26 5 -53 13 -61 17 -8 3 -28 -1
-44 -9z m120 -41 c34 -16 84 -97 84 -136 0 -39 -43 -100 -84 -119 -76 -35
-139 -20 -186 43 -34 46 -35 130 -2 173 42 54 121 71 188 39z"/>
<path d="M5684 1428 c-5 -7 -18 -37 -30 -65 -16 -39 -18 -53 -9 -53 7 0 15 7
19 15 8 22 52 18 69 -5 24 -34 27 -10 6 44 -25 63 -43 84 -55 64z m26 -60 c0
-5 -7 -8 -15 -8 -15 0 -20 21 -8 33 7 7 23 -11 23 -25z"/>
<path d="M6395 1531 c-43 -11 -68 -29 -95 -68 -45 -66 -35 -169 23 -215 l21
-16 -26 -49 c-15 -26 -37 -68 -50 -93 -27 -52 -50 -78 -65 -73 -6 2 -14 -13
-17 -34 -4 -21 -10 -49 -13 -63 -5 -22 0 -20 38 20 24 24 43 51 41 60 -1 8 9
33 22 55 14 22 37 63 52 92 l27 52 87 -1 87 -1 26 -41 c59 -95 86 -153 76
-163 -7 -7 3 -25 34 -56 24 -26 47 -43 51 -40 3 3 1 12 -5 19 -5 7 -11 37 -12
68 -2 55 -9 68 -23 45 -4 -8 -13 -4 -25 12 -10 13 -19 27 -19 32 0 4 -18 36
-40 71 -39 62 -50 96 -30 96 19 0 50 79 50 126 0 61 -25 110 -73 145 -41 30
-79 35 -142 20z m136 -52 c60 -47 73 -128 32 -199 -43 -74 -161 -81 -229 -15
-23 22 -34 55 -34 100 0 91 53 144 144 145 39 0 55 -6 87 -31z"/>
<path d="M6406 1418 c-32 -46 -10 -118 36 -118 27 0 48 11 48 26 0 12 -4 12
-19 2 -17 -10 -23 -9 -40 6 -24 22 -27 45 -7 71 13 18 15 18 41 1 26 -17 27
-17 23 6 -5 34 -60 38 -82 6z"/>
<path d="M146 1478 c-3 -7 -9 -27 -14 -45 -14 -41 6 -128 28 -128 9 0 13 6 10
15 -2 8 -5 50 -4 93 0 42 -4 77 -8 77 -5 0 -10 -6 -12 -12z"/>
<path d="M234 1458 c-4 -6 -2 -14 4 -16 19 -6 15 -52 -4 -52 -10 0 -14 6 -10
15 7 20 -4 19 -20 -2 -19 -26 -17 -33 11 -33 13 0 29 -8 34 -17 23 -39 35 43
15 105 -4 15 -21 16 -30 0z"/>
<path d="M311 1449 c11 -21 8 -67 -7 -116 -4 -17 -2 -23 9 -23 20 0 30 71 17
121 -6 21 -15 39 -21 39 -6 0 -5 -8 2 -21z"/>
<path d="M4530 1440 c-22 -22 -26 -70 -10 -101 12 -22 62 -26 79 -6 15 19 3
28 -19 15 -41 -26 -69 42 -31 76 17 15 20 15 34 2 19 -19 29 -9 16 15 -13 25
-44 24 -69 -1z"/>
<path d="M3490 1405 c0 -11 11 -15 40 -15 48 0 53 15 9 24 -45 9 -49 8 -49 -9z"/>
<path d="M4316 974 c-6 -54 1 -86 12 -55 3 8 18 27 35 42 31 28 29 49 -4 49
-10 0 -19 5 -19 10 0 6 -4 10 -9 10 -4 0 -11 -25 -15 -56z"/>
<path d="M759 917 c-15 -12 -37 -44 -49 -70 -32 -68 -22 -139 27 -196 l35 -41
-22 -43 c-62 -120 -79 -147 -85 -137 -12 19 -25 10 -25 -17 -1 -16 -7 -46 -15
-68 -15 -41 -11 -62 6 -32 6 10 26 32 45 49 23 21 31 35 24 42 -6 8 -4 21 5
36 8 14 19 36 25 50 6 14 19 33 27 43 9 9 21 27 27 40 8 15 21 22 41 23 17 1
50 5 75 8 l45 7 25 -48 c14 -26 27 -50 30 -53 18 -18 50 -104 41 -113 -6 -6 7
-27 39 -59 54 -55 82 -57 50 -5 -11 18 -20 49 -20 70 0 33 -3 38 -19 32 -14
-4 -23 2 -34 22 -27 53 -52 98 -57 103 -3 3 -13 20 -23 37 -17 32 -17 33 3 50
44 37 65 136 39 186 -19 37 -62 78 -98 93 -53 22 -131 18 -162 -9z m174 -19
c39 -23 77 -84 77 -126 0 -41 -37 -106 -71 -126 -18 -11 -53 -19 -83 -20 -72
-2 -110 27 -132 100 -18 54 -18 54 7 101 15 28 39 54 60 65 39 21 109 24 142
6z"/>
<path d="M846 818 c-3 -7 -12 -34 -22 -61 -17 -49 -14 -75 6 -38 14 27 38 27
67 -1 l23 -21 0 22 c0 13 -6 35 -14 49 -8 15 -17 35 -20 45 -6 20 -35 23 -40
5z m34 -55 c0 -7 -7 -13 -15 -13 -15 0 -21 31 -8 43 8 8 23 -12 23 -30z"/>
<path d="M2280 855 c0 -20 -5 -25 -25 -25 -33 0 -51 -37 -38 -77 8 -24 15 -28
49 -28 l39 0 3 78 c2 64 0 77 -13 77 -9 0 -15 -9 -15 -25z m-2 -72 c-3 -30
-25 -42 -34 -19 -9 22 2 46 21 46 12 0 15 -8 13 -27z"/>
<path d="M4909 863 c-1 -5 -2 -17 -3 -28 -1 -14 -8 -20 -24 -20 -39 0 -56 -52
-29 -89 10 -14 21 -16 47 -11 l35 6 0 75 c0 52 -4 74 -12 74 -7 0 -14 -3 -14
-7z m-2 -107 c-10 -25 -37 -19 -37 7 0 13 3 27 7 31 11 11 36 -21 30 -38z"/>
<path d="M3370 790 c0 -67 1 -70 24 -70 31 0 56 10 56 22 0 5 -10 8 -21 6 -28
-4 -49 26 -31 44 10 10 17 10 33 0 18 -12 20 -11 17 5 -2 10 -14 19 -27 21
-13 2 -26 12 -28 23 -11 42 -23 15 -23 -51z"/>
<path d="M5917 853 c-3 -5 -7 -39 -8 -78 l-4 -70 35 -3 c39 -4 60 16 60 58 0
30 -17 50 -42 50 -11 0 -18 7 -18 19 0 21 -15 36 -23 24z m62 -76 c8 -10 7
-18 -3 -32 -16 -23 -36 -12 -36 21 0 26 21 32 39 11z"/>
<path d="M6742 838 c-7 -7 -12 -20 -12 -29 0 -13 -7 -17 -27 -16 -27 2 -28 0
-28 -48 l0 -50 35 -1 c19 0 40 1 45 3 11 4 16 153 6 153 -4 0 -12 -5 -19 -12z
m-8 -74 c7 -19 -1 -34 -19 -34 -8 0 -16 4 -19 9 -9 14 4 41 19 41 7 0 16 -7
19 -16z"/>
<path d="M1610 821 c-14 -27 -13 -84 2 -99 27 -27 78 -7 78 30 0 20 -11 23
-26 8 -8 -8 -15 -6 -24 5 -17 20 5 51 25 35 18 -15 30 6 15 25 -18 21 -57 18
-70 -4z"/>
<path d="M2714 832 c-6 -4 -14 -26 -17 -48 -8 -50 4 -64 52 -57 32 5 33 7 28
45 -8 57 -32 81 -63 60z m36 -22 c0 -5 -7 -10 -16 -10 -8 0 -12 5 -9 10 3 6
10 10 16 10 5 0 9 -4 9 -10z m5 -31 c10 -15 -1 -23 -20 -15 -9 3 -13 10 -10
16 8 13 22 13 30 -1z"/>
<path d="M5389 828 c-1 -2 -3 -21 -5 -43 -4 -64 1 -72 46 -72 39 0 40 0 40 36
0 46 -24 81 -56 81 -13 0 -25 -1 -25 -2z m51 -32 c0 -3 -4 -8 -10 -11 -5 -3
-10 -1 -10 4 0 6 5 11 10 11 6 0 10 -2 10 -4z m0 -46 c0 -5 -4 -10 -10 -10 -5
0 -10 5 -10 10 0 6 5 10 10 10 6 0 10 -4 10 -10z"/>
<path d="M4224 785 c-10 -53 30 -87 64 -53 19 19 14 27 -15 25 -19 -1 -28 3
-31 16 -4 21 27 35 38 17 5 -8 9 -9 14 -1 11 18 -3 31 -34 31 -25 0 -30 -5
-36 -35z"/>
<path d="M6130 791 c-21 -41 -4 -101 29 -101 26 0 58 37 43 52 -8 8 -15 8 -26
-1 -19 -16 -36 -6 -36 21 0 16 5 19 24 14 28 -7 40 2 25 21 -16 19 -47 16 -59
-6z"/>
<path d="M844 493 c-4 -21 -11 -43 -16 -50 -6 -8 -3 -15 12 -23 11 -6 18 -14
16 -19 -11 -17 -8 -265 3 -269 8 -3 11 39 11 141 0 121 3 146 15 151 14 5 14
9 0 36 -8 16 -15 32 -15 35 2 49 -17 47 -26 -2z"/>
<path d="M1119 213 c-1 -16 -3 -47 -5 -70 -3 -33 0 -43 11 -43 11 0 15 9 13
28 -2 30 7 52 23 52 13 0 11 -54 -3 -68 -9 -9 -9 -12 3 -12 30 0 40 17 37 61
-3 41 -5 44 -30 41 -23 -3 -28 1 -28 17 0 32 -20 25 -21 -6z"/>
<path d="M560 190 c0 -20 5 -25 20 -22 8 1 3 -7 -12 -18 -24 -18 -26 -24 -15
-41 7 -11 23 -19 39 -19 26 0 28 3 28 43 0 24 -5 48 -12 55 -15 15 -48 16 -48
2z m40 -64 c0 -11 -19 -15 -25 -6 -3 5 1 10 9 10 9 0 16 -2 16 -4z"/>
</g>
</svg>
