<?xml version="1.0" standalone="no"?>
<!DOCTYPE svg PUBLIC "-//W3C//DTD SVG 20010904//EN"
 "http://www.w3.org/TR/2001/REC-SVG-20010904/DTD/svg10.dtd">
<svg version="1.0" xmlns="http://www.w3.org/2000/svg"
 width="552.000000pt" height="480.000000pt" viewBox="0 0 552.000000 480.000000"
 preserveAspectRatio="xMidYMid meet">

<g transform="translate(0.000000,480.000000) scale(0.100000,-0.100000)"
fill="#000000" stroke="none">
<path d="M4698 4743 c-2 -69 1 -106 12 -117 7 -7 10 -4 10 6 0 8 9 27 21 42
l20 26 -21 0 c-19 0 -21 5 -18 42 2 27 -1 43 -9 45 -9 3 -14 -10 -15 -44z"/>
<path d="M4657 4754 c-8 -8 1 -24 14 -24 5 0 9 7 9 15 0 15 -12 20 -23 9z"/>
<path d="M4685 4601 c-63 -16 -106 -60 -99 -104 1 -9 -2 -17 -7 -17 -6 0 2
-20 17 -45 l26 -45 -26 -35 c-15 -19 -32 -32 -40 -29 -8 3 -16 -7 -22 -28
l-10 -33 -66 0 c-60 0 -70 -3 -96 -28 -45 -43 -54 -93 -26 -142 l22 -40 -30
-38 c-22 -28 -35 -36 -49 -32 -15 5 -19 1 -19 -18 0 -13 -12 -36 -26 -51 l-27
-26 27 0 c14 0 26 5 26 10 0 6 13 18 28 28 16 9 27 22 26 27 -2 6 11 27 29 48
31 36 33 37 70 26 28 -7 47 -7 69 0 17 6 32 11 33 11 5 0 55 -81 55 -89 0 -15
61 -72 71 -66 5 4 2 19 -6 35 -8 16 -15 36 -15 46 0 10 -5 14 -15 11 -9 -4
-25 8 -44 32 l-30 37 21 32 c25 40 21 120 -6 148 -17 17 -17 18 6 35 12 10 26
19 31 19 4 0 7 8 7 18 0 9 12 30 26 46 24 28 27 28 66 17 32 -10 47 -10 70 0
28 11 32 10 49 -12 11 -13 17 -32 15 -41 -2 -10 3 -20 14 -23 10 -3 21 -12 24
-20 3 -8 12 -15 19 -15 12 0 12 7 3 40 -6 25 -15 39 -23 36 -15 -6 -60 64 -46
73 18 11 33 49 33 82 0 47 -34 94 -80 113 -22 9 -41 16 -43 15 -1 -1 -15 -4
-32 -8z m75 -26 c50 -26 73 -91 49 -138 -19 -38 -51 -57 -97 -57 -61 0 -102
41 -102 100 0 34 6 48 34 76 38 38 70 43 116 19z m-254 -345 c56 -35 58 -118
2 -165 -82 -70 -204 27 -154 123 32 63 91 79 152 42z"/>
<path d="M4679 4523 c0 -4 -2 -19 -4 -33 -6 -44 4 -60 36 -60 35 0 41 12 31
60 -6 28 -13 36 -35 38 -15 2 -27 0 -28 -5z m41 -23 c0 -5 -4 -10 -10 -10 -5
0 -10 5 -10 10 0 6 5 10 10 10 6 0 10 -4 10 -10z m0 -38 c0 -13 -12 -22 -22
-16 -10 6 -1 24 13 24 5 0 9 -4 9 -8z"/>
<path d="M4418 4148 c-19 -43 -16 -60 4 -40 17 17 39 15 54 -5 12 -16 13 -16
14 -2 0 27 -29 89 -43 89 -6 0 -20 -19 -29 -42z"/>
<path d="M1984 4533 c-7 -2 -9 -24 -6 -60 4 -44 2 -54 -8 -48 -10 6 -12 3 -6
-11 4 -10 10 -31 13 -46 6 -32 23 -38 23 -9 0 11 6 26 13 33 14 14 11 42 -3
33 -5 -3 -7 19 -5 49 4 55 0 67 -21 59z"/>
<path d="M3700 4441 c0 -33 -4 -61 -9 -63 -10 -3 9 -78 19 -78 3 0 12 15 20
33 7 17 15 35 18 40 2 4 -3 7 -12 7 -13 0 -15 10 -9 60 5 52 4 60 -11 60 -13
0 -16 -11 -16 -59z"/>
<path d="M1447 4326 c-63 -36 -84 -110 -48 -170 l19 -31 -44 -48 c-24 -27 -44
-44 -44 -38 0 27 -17 7 -29 -34 -7 -25 -14 -45 -16 -45 -1 0 -16 7 -31 15
-115 60 -231 -63 -163 -174 l20 -34 -37 -38 c-20 -21 -41 -36 -46 -33 -4 3
-11 -3 -14 -13 -3 -10 -11 -28 -17 -40 -15 -33 -1 -40 26 -15 13 12 29 22 36
22 7 0 11 6 8 13 -3 8 6 27 20 43 13 16 28 35 32 42 6 10 14 10 35 2 35 -13
83 -13 91 0 3 6 10 10 14 10 13 0 42 -49 45 -74 3 -30 48 -88 59 -77 5 5 4 18
-3 31 -6 12 -9 31 -7 42 4 14 2 18 -9 14 -10 -4 -21 9 -36 38 l-21 44 21 27
c27 35 28 78 2 120 -22 36 -18 45 33 64 20 8 27 16 23 29 -3 11 8 31 30 55 34
37 37 38 70 27 20 -7 50 -9 67 -6 29 5 35 2 69 -44 20 -27 33 -52 27 -56 -5
-3 7 -19 27 -35 42 -34 59 -30 38 9 -7 15 -14 33 -14 40 0 6 -8 12 -17 12 -10
1 -31 19 -47 42 l-28 41 22 45 c31 62 23 116 -24 159 -20 18 -44 33 -55 33
-11 0 -25 2 -33 4 -7 2 -30 -6 -51 -18z m107 -16 c36 -13 59 -64 53 -113 -15
-109 -163 -116 -198 -10 -27 82 60 156 145 123z m-283 -369 c41 -42 41 -97 -2
-146 -26 -29 -38 -35 -71 -35 -56 0 -98 42 -98 100 0 97 105 147 171 81z"/>
<path d="M1487 4263 c-4 -3 -7 -26 -7 -50 0 -44 0 -44 33 -41 30 3 32 6 33 41
1 27 -4 41 -17 47 -21 12 -33 13 -42 3z m33 -23 c0 -5 -4 -10 -10 -10 -5 0
-10 5 -10 10 0 6 5 10 10 10 6 0 10 -4 10 -10z m2 -45 c0 -5 -5 -11 -11 -13
-6 -2 -11 4 -11 13 0 9 5 15 11 13 6 -2 11 -8 11 -13z"/>
<path d="M1170 3869 c-21 -41 -20 -63 2 -41 17 17 39 15 54 -5 17 -23 18 -4 2
48 -14 50 -32 49 -58 -2z m40 1 c0 -5 -5 -10 -11 -10 -5 0 -7 5 -4 10 3 6 8
10 11 10 2 0 4 -4 4 -10z"/>
<path d="M1900 4290 c-15 -16 -30 -43 -33 -60 -6 -30 -7 -30 -71 -30 -46 0
-65 4 -68 13 -2 11 -9 11 -38 -1 l-35 -14 29 -15 c19 -10 35 -12 45 -7 9 5 43
8 76 6 58 -3 60 -4 77 -41 21 -43 76 -90 87 -72 4 6 15 9 24 6 8 -4 24 -2 35
4 16 9 24 4 52 -31 18 -22 33 -48 34 -57 2 -26 56 -75 69 -62 9 9 8 17 -1 31
-6 11 -12 29 -12 40 0 16 -5 20 -21 18 -15 -2 -30 9 -52 39 l-31 43 22 23 c24
25 30 69 18 124 -10 45 -58 73 -126 73 -45 0 -56 -4 -80 -30z m163 -20 c41
-45 38 -100 -8 -145 -19 -20 -44 -35 -57 -35 -50 0 -118 66 -118 114 0 24 32
73 60 90 36 24 89 14 123 -24z"/>
<path d="M1952 4238 c-7 -7 -12 -24 -12 -38 0 -14 5 -31 12 -38 17 -17 55 -15
61 2 4 11 -1 14 -21 13 -23 -2 -27 2 -27 23 0 21 4 25 27 23 20 -1 25 2 21 13
-6 17 -44 19 -61 2z"/>
<path d="M786 4263 c4 -16 7 -47 6 -70 -3 -53 11 -55 27 -5 11 33 11 43 -3 70
-21 40 -41 43 -30 5z"/>
<path d="M2604 4271 c-55 -33 -69 -107 -31 -162 l24 -34 -29 -37 c-18 -23 -34
-35 -43 -31 -9 3 -15 -1 -16 -11 -3 -31 -4 -35 -16 -47 -15 -15 -17 -39 -4
-39 14 0 72 60 67 69 -3 4 10 24 27 44 31 36 33 37 69 25 29 -9 44 -9 64 0 22
11 28 9 45 -10 10 -13 28 -41 39 -63 26 -51 57 -91 65 -84 3 4 3 25 -1 48 -5
29 -11 41 -20 37 -7 -3 -27 15 -47 43 l-35 48 19 29 c12 18 19 47 19 78 0 41
-5 53 -34 82 -29 29 -41 34 -82 34 -31 0 -61 -7 -80 -19z m127 -14 c18 -12 39
-39 47 -59 12 -32 12 -40 -3 -72 -19 -39 -59 -66 -98 -66 -45 0 -107 68 -107
118 0 27 38 72 74 88 42 18 48 17 87 -9z"/>
<path d="M2657 4175 c-20 -43 -23 -65 -5 -47 17 17 39 15 54 -5 12 -17 13 -17
14 3 0 32 -21 84 -34 84 -7 0 -20 -16 -29 -35z m33 -5 c0 -5 -5 -10 -11 -10
-5 0 -7 5 -4 10 3 6 8 10 11 10 2 0 4 -4 4 -10z"/>
<path d="M562 4215 c0 -54 3 -65 17 -65 13 0 16 11 16 65 0 54 -3 65 -16 65
-14 0 -17 -11 -17 -65z"/>
<path d="M620 4226 c0 -42 4 -56 14 -56 8 0 21 -3 30 -6 11 -4 16 -1 16 10 0
10 -8 16 -21 16 -18 0 -20 5 -18 42 2 26 -1 43 -9 46 -8 2 -12 -13 -12 -52z"/>
<path d="M702 4228 c3 -52 4 -53 36 -56 18 -2 32 1 32 7 0 6 -9 11 -20 11 -17
0 -20 7 -20 45 0 34 -4 45 -16 45 -12 0 -14 -10 -12 -52z"/>
<path d="M3121 4255 c-16 -14 -33 -35 -36 -46 -4 -11 -19 -25 -33 -31 -26 -11
-26 -12 -4 -15 12 -3 22 -9 22 -15 0 -45 85 -125 121 -114 64 20 77 16 106
-29 15 -25 31 -45 36 -45 4 0 7 -6 7 -13 0 -17 58 -73 67 -64 3 4 1 17 -5 30
-6 12 -14 32 -17 45 -5 18 -10 20 -20 12 -10 -8 -21 1 -47 38 l-35 48 25 44
c22 41 24 49 13 89 -18 64 -52 91 -117 91 -42 0 -59 -5 -83 -25z m152 -25 c75
-83 -15 -215 -114 -165 -83 43 -80 159 6 196 33 14 78 1 108 -31z"/>
<path d="M3160 4162 c0 -45 2 -50 25 -55 32 -6 43 15 36 63 -5 29 -11 36 -33
38 -27 3 -28 2 -28 -46z m40 18 c0 -5 -4 -10 -10 -10 -5 0 -10 5 -10 10 0 6 5
10 10 10 6 0 10 -4 10 -10z m0 -35 c10 -12 10 -15 -4 -15 -9 0 -16 7 -16 15 0
8 2 15 4 15 2 0 9 -7 16 -15z"/>
<path d="M3654 4266 c-35 -16 -64 -51 -64 -78 0 -16 -10 -18 -84 -18 -54 0
-86 4 -88 11 -3 9 -14 9 -41 0 l-37 -13 32 -23 c28 -19 35 -20 44 -8 9 10 32
13 90 11 76 -3 78 -4 85 -31 15 -57 86 -96 150 -82 26 6 36 2 65 -26 19 -18
34 -40 34 -49 0 -8 9 -21 20 -28 11 -7 20 -19 20 -27 0 -8 4 -15 9 -15 19 0
21 18 6 46 -8 16 -15 38 -15 49 0 14 -3 16 -12 7 -9 -9 -18 -2 -41 28 l-29 40
22 35 c16 25 20 47 18 84 -2 27 -5 48 -7 46 -2 -2 -18 7 -37 21 -40 31 -98 39
-140 20z m113 -21 c80 -56 55 -176 -39 -191 -77 -13 -142 60 -118 132 22 66
104 96 157 59z"/>
<path d="M3676 4184 c-11 -30 -6 -72 10 -78 27 -10 52 -7 58 9 6 17 -9 21 -19
5 -10 -17 -35 9 -35 35 0 13 7 25 15 29 8 3 15 1 15 -4 0 -6 5 -10 10 -10 6 0
10 7 10 15 0 21 -56 20 -64 -1z"/>
<path d="M4899 4245 c-31 -17 -59 -71 -59 -113 0 -16 11 -46 25 -66 l24 -36
-21 -36 c-12 -21 -26 -33 -34 -30 -8 3 -14 0 -14 -7 0 -7 -7 -25 -15 -41 -9
-16 -13 -31 -11 -34 7 -7 71 49 71 62 0 6 9 25 19 43 18 30 23 32 70 30 28 -1
58 2 67 6 12 6 24 -2 44 -29 16 -21 29 -45 30 -54 0 -9 18 -33 38 -54 29 -28
39 -34 43 -22 3 8 -1 25 -10 37 -9 13 -13 32 -10 46 7 26 -13 33 -22 8 -5 -11
-17 0 -44 37 -38 52 -38 53 -19 74 20 21 24 74 10 124 -16 58 -120 89 -182 55z
m129 -22 c26 -16 42 -51 42 -95 0 -42 -57 -98 -99 -98 -65 0 -111 46 -111 112
0 85 92 129 168 81z"/>
<path d="M4953 4168 c-19 -25 -21 -46 -7 -67 16 -22 48 -28 59 -10 11 16 -3
23 -20 9 -12 -10 -17 -8 -27 14 -10 22 -9 29 5 43 14 14 18 14 33 2 15 -12 17
-12 12 1 -6 19 -42 25 -55 8z"/>
<path d="M2862 4190 l-33 -16 26 -12 c14 -7 37 -9 51 -6 26 7 33 24 10 24 -8
0 -16 6 -18 13 -2 10 -10 9 -36 -3z"/>
<path d="M2955 4170 c-4 -6 7 -10 24 -10 17 0 31 5 31 10 0 6 -11 10 -24 10
-14 0 -28 -4 -31 -10z"/>
<path d="M4690 3691 c0 -33 -5 -61 -11 -63 -7 -2 -7 -12 0 -31 19 -48 13 -61
-31 -82 -68 -32 -91 -108 -52 -173 16 -29 16 -32 0 -56 -9 -14 -20 -26 -25
-26 -5 0 -16 -18 -25 -40 -15 -37 -18 -39 -41 -30 -66 25 -138 -3 -166 -64
-10 -23 -14 -42 -9 -44 6 -2 10 -16 10 -31 0 -14 7 -37 16 -49 14 -21 14 -24
-8 -51 -15 -19 -29 -28 -40 -25 -13 4 -18 0 -18 -16 0 -12 -8 -35 -17 -51 -24
-41 -9 -47 27 -10 17 17 36 31 40 31 5 0 7 6 4 14 -3 7 7 27 21 44 23 28 28
30 56 20 29 -10 57 -8 89 6 16 7 60 -41 64 -70 1 -8 12 -21 24 -30 12 -8 22
-22 22 -30 0 -8 5 -14 10 -14 13 0 13 12 -2 60 -8 23 -18 38 -25 36 -6 -3 -23
10 -37 29 l-26 34 20 33 c25 42 25 94 0 135 l-19 32 32 22 c18 13 34 24 37 26
2 2 -1 8 -9 12 -10 6 -7 14 11 35 21 24 25 26 55 14 24 -9 40 -9 70 0 35 11
39 10 60 -16 12 -15 21 -34 20 -42 -3 -16 50 -66 60 -57 6 7 -19 67 -28 67 -4
0 -18 15 -32 34 l-26 33 21 42 c14 29 18 51 14 75 -8 44 -55 94 -95 102 -36 8
-38 17 -12 67 15 29 16 37 5 37 -10 0 -14 15 -14 60 0 33 -4 60 -10 60 -6 0
-10 -26 -10 -59z m56 -191 c73 -36 85 -122 23 -174 -35 -30 -76 -33 -119 -11
-37 19 -50 43 -50 90 0 47 14 71 53 95 40 25 41 25 93 0z m-218 -345 c52 -44
46 -117 -13 -163 -42 -34 -90 -29 -131 12 -36 36 -41 62 -24 112 22 63 114 85
168 39z"/>
<path d="M4670 3405 c0 -46 0 -46 33 -43 30 3 32 5 32 43 0 38 -2 40 -32 43
-33 3 -33 3 -33 -43z m50 25 c0 -5 -7 -10 -15 -10 -8 0 -15 5 -15 10 0 6 7 10
15 10 8 0 15 -4 15 -10z m-2 -42 c-6 -18 -28 -21 -28 -4 0 9 7 16 16 16 9 0
14 -5 12 -12z"/>
<path d="M4431 3089 c-19 -42 -18 -79 1 -45 12 21 35 20 47 -1 5 -10 13 -15
17 -11 8 8 -23 85 -38 94 -5 3 -17 -14 -27 -37z m33 -4 c3 -8 1 -15 -4 -15 -6
0 -10 7 -10 15 0 8 2 15 4 15 2 0 6 -7 10 -15z"/>
<path d="M1970 3405 c0 -36 -4 -65 -10 -65 -6 0 -6 -8 -1 -22 5 -13 12 -32 16
-43 5 -17 9 -13 21 20 7 22 14 41 14 43 0 1 -7 2 -16 2 -10 0 -14 6 -10 18 5
17 9 75 7 100 -1 6 -5 12 -11 12 -6 0 -10 -28 -10 -65z"/>
<path d="M3678 3368 c-6 -133 7 -176 30 -101 8 27 8 39 0 44 -7 5 -9 28 -4 73
5 54 4 66 -8 66 -10 0 -15 -20 -18 -82z"/>
<path d="M2943 3320 c-22 -5 -64 -18 -91 -30 -28 -12 -55 -19 -60 -16 -5 3
-19 -8 -31 -24 l-22 -30 27 0 c15 0 36 10 49 24 40 44 128 69 240 69 92 0 205
-19 260 -43 11 -5 54 -23 95 -40 169 -71 171 -72 164 -89 -18 -40 -16 -81 6
-116 31 -49 72 -69 132 -62 47 6 48 6 77 -37 17 -24 28 -46 25 -49 -3 -3 8
-13 25 -22 17 -8 31 -20 31 -25 0 -6 11 -10 25 -10 16 0 25 6 25 15 0 18 -12
19 -27 4 -8 -8 -13 -2 -19 23 -4 18 -7 39 -5 46 1 6 -2 12 -8 12 -5 0 -11 -6
-14 -12 -3 -8 -12 -3 -26 15 -13 15 -29 34 -37 41 -19 19 -18 26 7 52 33 35
37 104 9 142 -13 17 -27 29 -31 26 -4 -2 -10 0 -14 5 -3 6 -26 13 -50 17 -35
5 -52 2 -80 -14 l-35 -21 -67 33 c-217 106 -421 147 -580 116z m818 -159 c24
-24 29 -38 29 -76 0 -122 -161 -147 -200 -31 -33 102 95 182 171 107z"/>
<path d="M3668 3129 c-25 -14 -24 -75 1 -89 21 -10 51 -4 51 11 0 5 -10 8 -22
6 -19 -2 -23 3 -23 28 0 25 4 30 23 28 25 -3 30 12 6 21 -19 7 -15 8 -36 -5z"/>
<path d="M1499 3263 c-29 -5 -80 -46 -98 -80 -16 -32 -14 -63 9 -106 12 -22
17 -43 13 -51 -15 -26 -62 -76 -70 -76 -13 0 -44 -73 -34 -83 10 -10 74 49 66
63 -3 5 10 29 30 53 35 42 38 43 73 34 27 -6 48 -5 77 5 33 11 43 21 59 59 21
52 17 103 -12 136 -15 18 -76 55 -84 52 -2 -1 -15 -4 -29 -6z m92 -54 c33 -36
38 -82 14 -129 -19 -36 -43 -50 -87 -50 -97 0 -141 122 -67 184 45 38 102 36
140 -5z"/>
<path d="M1497 3140 c-9 -23 -11 -42 -6 -46 5 -3 9 -1 9 4 0 19 34 23 47 6 21
-28 24 -11 6 34 -9 23 -21 42 -28 42 -7 0 -19 -18 -28 -40z m37 5 c3 -9 0 -15
-9 -15 -9 0 -12 6 -9 15 4 8 7 15 9 15 2 0 5 -7 9 -15z"/>
<path d="M3240 3250 c0 -5 5 -10 10 -10 6 0 10 5 10 10 0 6 -4 10 -10 10 -5 0
-10 -4 -10 -10z"/>
<path d="M1941 3239 c-29 -11 -47 -32 -67 -77 -14 -32 -16 -33 -72 -30 -42 2
-56 7 -54 17 2 9 -3 11 -15 6 -10 -4 -28 -10 -40 -12 -32 -7 -29 -16 9 -31 21
-8 34 -9 36 -2 2 5 30 10 63 10 58 0 59 0 79 -40 29 -58 73 -83 132 -76 46 5
48 4 78 -36 16 -23 30 -47 30 -53 0 -14 55 -65 70 -65 13 0 13 17 1 25 -5 3
-12 19 -16 36 -5 20 -11 29 -21 25 -8 -3 -21 6 -31 22 -10 15 -23 33 -30 40
-16 16 -17 39 -2 48 6 3 17 21 25 39 10 25 11 40 1 71 -15 52 -37 74 -84 85
-47 11 -61 10 -92 -2z m111 -21 c86 -70 48 -198 -60 -198 -93 0 -134 143 -55
192 33 21 93 23 115 6z"/>
<path d="M1976 3164 c-32 -32 -10 -90 30 -82 10 2 20 10 22 18 4 12 2 13 -9 3
-20 -17 -41 -1 -37 28 2 19 8 24 31 22 24 -2 27 0 17 13 -16 18 -35 18 -54 -2z"/>
<path d="M3200 3241 c0 -6 5 -13 10 -16 6 -3 10 1 10 9 0 9 -4 16 -10 16 -5 0
-10 -4 -10 -9z"/>
<path d="M2569 3201 c-16 -16 -29 -35 -29 -43 1 -7 7 -2 14 11 16 29 38 39 87
40 63 2 110 -62 95 -125 -11 -42 -59 -84 -96 -84 -56 0 -110 47 -110 95 0 8
-4 15 -10 15 -18 0 -11 -36 14 -73 l24 -36 -31 -44 c-19 -26 -38 -42 -46 -39
-8 2 -11 0 -8 -5 3 -5 -1 -22 -9 -37 -18 -36 -18 -46 1 -46 8 0 15 7 15 15 0
9 11 20 25 25 25 10 35 30 14 30 -6 0 3 19 21 43 30 41 32 42 90 42 67 0 101
23 120 81 9 27 17 34 38 35 24 2 25 2 4 6 -14 3 -30 20 -43 44 -40 79 -127
103 -180 50z"/>
<path d="M3131 3206 c-74 -27 -101 -121 -53 -186 l23 -31 -26 -45 c-15 -25
-32 -43 -38 -41 -11 3 -40 -83 -32 -92 7 -7 66 59 61 67 -3 5 8 28 24 52 l29
44 65 1 c65 2 66 1 91 -35 14 -20 25 -40 25 -45 0 -14 52 -65 67 -65 15 0 17
16 4 25 -5 3 -12 18 -16 35 -4 17 -11 27 -19 24 -7 -3 -27 14 -45 36 l-32 40
20 34 c64 104 -34 224 -148 182z m99 -23 c58 -34 68 -116 21 -164 -24 -23 -38
-29 -74 -29 -39 0 -49 5 -76 35 -37 43 -40 84 -10 127 35 49 89 61 139 31z"/>
<path d="M3149 3138 c-6 -21 -4 -90 3 -94 5 -3 20 -3 33 0 22 6 24 11 22 49
-2 38 -5 42 -29 45 -16 2 -28 2 -29 0z m35 -29 c-3 -5 -10 -7 -15 -3 -5 3 -7
10 -3 15 3 5 10 7 15 3 5 -3 7 -10 3 -15z m6 -34 c0 -8 -7 -15 -15 -15 -16 0
-20 12 -8 23 11 12 23 8 23 -8z"/>
<path d="M537 3161 c-6 -46 5 -108 18 -101 14 8 14 140 0 140 -7 0 -15 -18
-18 -39z"/>
<path d="M782 3160 c1 -25 -1 -55 -5 -67 -6 -18 -5 -23 7 -23 9 0 17 9 18 23
4 63 3 77 -9 94 -12 15 -13 12 -11 -27z"/>
<path d="M592 3144 c1 -48 18 -74 49 -74 27 0 24 28 -3 32 -20 3 -23 9 -22 46
0 28 -4 42 -12 42 -9 0 -13 -14 -12 -46z"/>
<path d="M680 3129 c0 -43 3 -60 12 -57 7 3 13 14 13 26 0 12 3 22 8 22 4 0
12 0 18 0 7 0 9 -9 6 -21 -3 -13 -1 -19 6 -16 14 4 17 77 4 95 -5 6 -22 12
-38 12 -29 0 -29 0 -29 -61z m60 31 c0 -5 -6 -10 -14 -10 -8 0 -18 5 -21 10
-3 6 3 10 14 10 12 0 21 -4 21 -10z"/>
<path d="M4925 3180 c-65 -27 -95 -120 -57 -184 l20 -34 -24 -36 c-14 -20 -29
-34 -34 -31 -4 3 -13 -7 -18 -23 -5 -15 -13 -36 -18 -46 -6 -16 0 -14 29 10
20 16 37 35 37 42 0 8 9 26 20 41 18 26 24 28 90 28 67 0 71 -1 95 -33 14 -18
25 -38 25 -44 0 -13 52 -80 63 -80 11 0 8 38 -4 46 -6 3 -9 17 -6 30 5 28 -11
43 -25 23 -6 -9 -11 -10 -14 -3 -3 6 -16 26 -29 44 l-24 32 26 39 c21 31 24
45 18 75 -16 88 -94 136 -170 104z m122 -45 c32 -32 35 -39 30 -78 -18 -135
-207 -128 -207 8 0 64 39 105 100 105 35 0 48 -6 77 -35z"/>
<path d="M4939 3084 c-7 -20 -6 -32 6 -50 8 -13 19 -24 24 -24 22 0 41 13 41
28 0 12 -3 13 -12 4 -18 -18 -36 -14 -43 8 -9 28 12 52 38 44 13 -4 17 -2 13
5 -4 6 -18 11 -32 11 -17 0 -27 -8 -35 -26z"/>
<path d="M2622 3148 c-5 -7 -17 -28 -26 -45 -15 -29 -15 -33 -1 -33 8 0 15 5
15 10 0 15 21 12 42 -7 17 -15 18 -15 18 1 0 18 -26 86 -33 86 -3 0 -9 -6 -15
-12z m14 -45 c-10 -10 -19 5 -10 18 6 11 8 11 12 0 2 -7 1 -15 -2 -18z"/>
<path d="M2953 3122 c-18 -30 8 -43 53 -27 22 8 36 14 33 15 -4 0 -22 6 -41
14 -31 13 -35 13 -45 -2z"/>
<path d="M2848 3109 c-8 -6 1 -9 25 -9 20 0 37 2 37 4 0 9 -50 12 -62 5z"/>
<path d="M522 3070 c0 -19 2 -27 5 -17 2 9 2 25 0 35 -3 9 -5 1 -5 -18z"/>
<path d="M1580 3005 c0 -3 11 -23 24 -44 18 -29 22 -41 13 -50 -8 -8 -7 -11 3
-11 7 0 22 -7 32 -17 10 -9 20 -14 22 -12 9 9 -11 74 -23 71 -6 -1 -21 14 -32
33 -18 30 -39 46 -39 30z"/>
<path d="M3210 2945 c0 -8 5 -15 10 -15 6 0 10 7 10 15 0 8 -4 15 -10 15 -5 0
-10 -7 -10 -15z"/>
<path d="M1676 2848 c-31 -23 -56 -73 -56 -111 0 -13 11 -40 24 -60 l24 -35
-24 -35 c-17 -26 -29 -34 -43 -30 -16 4 -19 1 -14 -16 3 -13 -2 -29 -13 -42
-13 -14 -15 -22 -6 -31 8 -8 20 -2 44 22 18 19 32 40 30 47 -2 7 8 27 21 44
22 29 29 31 91 32 63 1 69 -1 91 -29 13 -16 24 -37 25 -47 0 -17 46 -66 62
-67 4 0 0 20 -9 45 -8 25 -18 43 -22 40 -5 -2 -22 15 -39 39 -27 38 -29 45
-16 58 18 18 29 78 20 112 -3 13 -18 38 -32 55 -23 27 -32 31 -77 31 -37 -1
-60 -7 -81 -22z m146 -24 c23 -23 28 -36 28 -74 0 -53 -17 -82 -60 -100 -66
-27 -150 28 -150 99 0 22 11 42 40 72 36 38 43 41 76 36 21 -4 50 -19 66 -33z"/>
<path d="M1720 2756 c0 -44 1 -46 30 -46 29 0 30 1 27 43 -2 38 -5 42 -29 45
-27 3 -28 2 -28 -42z m40 13 c0 -5 -7 -9 -15 -9 -15 0 -20 12 -9 23 8 8 24 -1
24 -14z m5 -29 c3 -6 -1 -13 -10 -16 -19 -8 -30 0 -20 15 8 14 22 14 30 1z"/>
<path d="M4678 2540 c3 -26 0 -40 -8 -40 -6 0 -8 -4 -5 -10 3 -5 1 -10 -4 -10
-6 0 -11 -4 -11 -10 0 -5 7 -10 16 -10 11 0 14 -8 12 -27 -2 -21 -10 -29 -35
-35 -33 -9 -65 -50 -77 -100 -7 -32 7 -74 36 -105 l20 -22 -33 -45 c-18 -25
-38 -46 -46 -46 -7 0 -13 -8 -13 -18 0 -10 -5 -23 -12 -30 -19 -19 0 -27 20
-9 10 10 29 17 43 17 23 1 23 1 6 15 -18 13 -17 16 15 58 32 43 35 45 93 49
65 4 68 3 117 -63 15 -20 24 -39 21 -43 -6 -6 15 -27 49 -46 16 -9 16 -8 3 24
-8 18 -11 37 -7 41 4 5 -1 5 -10 2 -12 -4 -28 10 -58 49 -40 53 -41 56 -25 74
24 27 36 87 22 119 -15 36 -57 81 -76 81 -36 1 -43 15 -27 55 18 43 20 59 6
50 -6 -4 -10 10 -10 34 0 27 -5 41 -13 41 -9 0 -11 -12 -9 -40z m58 -166 c70
-33 83 -107 30 -160 -27 -27 -42 -34 -74 -34 -78 0 -128 75 -96 143 16 34 61
66 92 67 8 0 29 -7 48 -16z"/>
<path d="M4660 2275 c0 -45 1 -46 28 -43 24 3 27 7 27 43 0 36 -3 40 -27 43
-27 3 -28 2 -28 -43z m38 24 c-2 -6 -8 -10 -13 -10 -5 0 -11 4 -13 10 -2 6 4
11 13 11 9 0 15 -5 13 -11z m2 -44 c0 -8 -7 -15 -15 -15 -8 0 -15 7 -15 15 0
8 7 15 15 15 8 0 15 -7 15 -15z"/>
<path d="M1230 2201 c0 -60 -3 -71 -17 -71 -13 0 -14 -3 -5 -12 7 -7 12 -25
12 -40 0 -15 4 -28 8 -28 12 0 43 73 33 80 -11 7 -21 90 -11 90 10 0 1 38 -11
46 -5 3 -9 -27 -9 -65z"/>
<path d="M2580 2193 c0 -46 -4 -83 -10 -85 -7 -2 -6 -17 3 -42 l13 -39 18 38
c14 28 15 39 6 45 -9 5 -10 23 -5 58 5 37 3 58 -9 79 -15 27 -15 26 -16 -54z"/>
<path d="M1154 1996 c-29 -29 -34 -41 -34 -83 0 -28 7 -58 16 -71 16 -23 15
-28 -24 -80 -18 -24 -28 -30 -37 -22 -10 8 -14 4 -17 -17 -3 -16 -9 -36 -13
-45 -5 -13 -3 -18 8 -18 8 0 17 7 21 15 3 8 12 12 21 9 17 -7 34 24 18 35 -7
3 2 21 22 44 33 38 34 38 73 26 44 -13 109 2 119 27 3 8 9 11 14 8 5 -3 8 -2
7 3 -1 4 3 23 9 41 l12 32 91 0 c58 0 89 -4 85 -10 -8 -12 -8 -13 40 4 l40 14
-35 14 c-20 9 -38 11 -41 6 -3 -5 -46 -10 -95 -11 -87 -2 -89 -2 -94 23 -12
59 -55 90 -123 90 -42 0 -54 -5 -83 -34z m151 -2 c14 -9 30 -34 37 -55 24 -83
-45 -152 -130 -130 -75 21 -103 111 -52 167 44 47 91 53 145 18z"/>
<path d="M1219 1914 c-22 -49 -20 -66 6 -40 21 21 32 20 44 -1 5 -10 12 -15
16 -12 6 7 -31 99 -40 99 -3 0 -15 -21 -26 -46z m30 -13 c-15 -5 -22 6 -14 19
6 9 10 9 16 -1 5 -8 4 -15 -2 -18z"/>
<path d="M1679 1991 c-34 -33 -39 -45 -39 -83 0 -30 7 -54 20 -70 l19 -25 -36
-47 c-19 -25 -42 -46 -49 -46 -8 0 -14 -8 -14 -17 0 -9 -7 -25 -17 -35 -15
-17 -15 -18 4 -18 12 0 23 7 27 15 3 8 12 15 21 15 9 0 15 9 15 23 1 12 15 39
33 59 31 36 33 37 72 26 34 -9 47 -8 79 7 l38 18 38 -44 c22 -24 39 -49 40
-56 0 -17 57 -55 64 -44 4 5 2 12 -4 16 -5 3 -10 17 -10 30 0 18 -5 24 -17 22
-11 -1 -36 18 -60 44 -42 46 -43 47 -28 77 39 78 -24 172 -115 172 -36 0 -48
-6 -81 -39z m153 -6 c33 -30 42 -57 34 -100 -8 -43 -57 -85 -97 -85 -65 0
-108 43 -109 108 0 35 6 49 29 73 39 39 103 41 143 4z"/>
<path d="M1730 1895 c0 -45 1 -46 28 -43 24 3 27 7 27 43 0 36 -3 40 -27 43
-27 3 -28 2 -28 -43z m38 23 c-6 -18 -28 -21 -28 -4 0 9 7 16 16 16 9 0 14 -5
12 -12z m2 -44 c0 -9 -5 -14 -12 -12 -18 6 -21 28 -4 28 9 0 16 -7 16 -16z"/>
<path d="M2518 2003 c-15 -9 -32 -27 -39 -40 -17 -32 -15 -107 3 -136 15 -22
15 -26 -18 -67 -19 -23 -34 -39 -34 -34 0 5 -9 -8 -20 -29 -20 -36 -19 -57 1
-57 5 0 9 7 9 15 0 9 11 21 25 27 17 7 21 14 14 19 -8 5 -2 21 20 53 29 41 34
45 53 35 12 -6 41 -11 66 -11 50 1 82 24 102 73 12 27 16 29 69 30 39 0 50 3
36 8 -11 5 -23 6 -28 4 -4 -2 -21 -2 -37 2 -20 5 -30 14 -35 33 -7 32 -32 65
-62 81 -31 16 -94 13 -125 -6z m120 -13 c95 -58 55 -200 -56 -200 -46 0 -102
55 -102 99 0 43 24 87 58 105 37 21 61 20 100 -4z"/>
<path d="M2556 1900 c-19 -48 -20 -58 -4 -42 15 15 58 16 58 2 0 -5 4 -10 9
-10 15 0 -15 85 -31 88 -10 2 -21 -12 -32 -38z m34 -14 c-14 -14 -22 -2 -14
18 5 14 9 15 15 4 4 -7 4 -17 -1 -22z"/>
<path d="M3040 2009 c-71 -29 -102 -136 -55 -189 12 -14 10 -22 -18 -63 -18
-25 -38 -47 -44 -47 -7 0 -13 -6 -13 -12 0 -7 -7 -25 -14 -40 -8 -16 -12 -28
-8 -28 13 1 63 50 58 58 -2 4 11 29 30 55 31 42 37 47 62 40 36 -11 95 -8 120
6 11 6 29 29 38 52 17 38 20 40 51 34 26 -5 33 -3 33 10 0 13 -6 15 -29 10
-26 -6 -30 -2 -55 48 -22 45 -32 56 -65 65 -45 14 -58 14 -91 1z m99 -24 c16
-8 36 -30 45 -50 50 -104 -87 -196 -173 -116 -25 24 -31 37 -31 71 0 34 6 48
34 76 38 38 77 44 125 19z"/>
<path d="M3050 1885 c0 -43 1 -45 29 -45 33 0 38 8 33 56 -4 30 -8 34 -33 34
-28 0 -29 -2 -29 -45z m40 25 c0 -5 -7 -10 -15 -10 -8 0 -15 5 -15 10 0 6 7
10 15 10 8 0 15 -4 15 -10z m8 -42 c-7 -19 -38 -22 -38 -4 0 10 9 16 21 16 12
0 19 -5 17 -12z"/>
<path d="M4373 1988 c-56 -40 -69 -106 -34 -164 l19 -31 -29 -46 c-20 -32 -33
-45 -44 -41 -10 4 -15 0 -15 -13 0 -10 -7 -28 -15 -39 -8 -12 -11 -24 -8 -28
13 -12 32 -6 38 13 3 11 15 23 26 26 14 5 17 10 10 18 -6 8 -1 25 18 52 l27
40 69 -3 c66 -3 72 -5 103 -39 17 -20 31 -41 30 -47 -3 -13 48 -66 62 -66 13
0 13 17 1 25 -5 3 -12 19 -16 36 -5 21 -11 29 -21 25 -9 -3 -24 10 -41 35
l-26 40 21 38 c27 48 28 86 2 128 -38 63 -119 81 -177 41z m143 -32 c51 -51
44 -124 -16 -159 -75 -45 -159 4 -160 91 0 61 41 102 100 102 34 0 48 -6 76
-34z"/>
<path d="M4420 1889 c-12 -23 -18 -44 -14 -47 4 -4 9 -1 11 6 6 15 35 16 51 0
15 -15 15 -6 0 43 -6 22 -15 39 -19 39 -5 0 -18 -18 -29 -41z m26 -16 c-10
-10 -19 5 -10 18 6 11 8 11 12 0 2 -7 1 -15 -2 -18z"/>
<path d="M4937 2000 c-38 -11 -75 -57 -83 -99 -5 -26 -1 -46 15 -76 l22 -42
-28 -47 c-16 -26 -33 -44 -40 -41 -8 2 -13 -3 -13 -13 0 -10 -7 -28 -16 -40
-9 -13 -14 -26 -10 -29 7 -8 72 48 68 60 -1 5 10 28 25 52 26 42 28 43 77 41
28 0 61 3 73 7 19 7 27 1 53 -34 17 -24 28 -49 26 -56 -3 -7 -1 -13 3 -13 5 0
19 -11 32 -25 28 -28 39 -31 39 -10 0 8 -4 15 -9 15 -10 0 -27 39 -23 53 1 4
-4 7 -12 5 -8 -2 -28 17 -45 42 l-30 45 20 32 c16 26 19 42 13 79 -8 55 -29
79 -81 93 -43 12 -38 12 -76 1z m109 -44 c77 -77 17 -185 -99 -177 -10 0 -32
14 -48 30 -43 43 -41 101 5 147 26 26 42 34 71 34 29 0 45 -8 71 -34z"/>
<path d="M4952 1918 c-13 -13 -15 -37 -6 -62 7 -18 59 -22 69 -6 4 6 -5 7 -23
4 -33 -7 -44 8 -31 44 9 23 24 29 34 12 4 -6 11 -8 16 -4 5 3 7 10 4 15 -9 13
-49 11 -63 -3z"/>
<path d="M3585 1989 c-56 -28 -81 -134 -42 -177 9 -10 17 -22 17 -26 0 -17
-65 -86 -77 -82 -8 3 -13 -2 -13 -15 0 -11 -5 -29 -11 -41 -6 -11 -9 -22 -6
-24 7 -7 62 46 62 59 0 7 13 29 29 49 28 37 29 38 81 32 31 -4 60 -2 73 5 18
10 24 6 51 -31 17 -24 29 -48 27 -55 -3 -7 -2 -13 3 -13 4 0 20 -11 36 -26 15
-14 29 -23 31 -22 7 7 -31 77 -42 78 -5 0 -23 19 -40 43 -29 42 -29 42 -12 77
10 19 18 48 18 64 0 37 -36 95 -67 107 -31 12 -92 11 -118 -2z m108 -10 c55
-30 75 -108 41 -158 -41 -57 -133 -58 -174 -2 -62 88 39 210 133 160z"/>
<path d="M3620 1904 c-31 -36 30 -98 63 -65 7 7 1 10 -19 8 -26 -2 -29 1 -29
28 0 27 3 30 28 28 15 -1 25 2 22 8 -10 14 -51 11 -65 -7z"/>
<path d="M525 1971 c-3 -6 -5 -32 -4 -58 1 -27 0 -54 -2 -62 -2 -8 3 -16 12
-18 13 -3 15 7 14 67 -3 72 -8 90 -20 71z"/>
<path d="M581 1906 c1 -33 3 -52 6 -41 10 45 12 48 28 35 8 -7 15 -21 15 -31
0 -11 3 -19 8 -19 4 0 7 24 6 52 0 51 -2 53 -32 59 l-32 6 1 -61z m47 26 c2
-7 -6 -12 -17 -12 -21 0 -27 11 -14 24 9 9 26 2 31 -12z"/>
<path d="M775 1905 c0 -37 4 -65 10 -65 6 0 10 19 9 43 -1 66 -3 87 -11 87 -5
0 -8 -29 -8 -65z"/>
<path d="M680 1921 c0 -22 -3 -46 -6 -55 -3 -9 -1 -16 5 -16 6 0 11 11 11 25
0 18 5 25 20 25 13 0 20 -7 20 -20 0 -11 3 -20 8 -20 12 0 10 84 -2 92 -6 4
-21 8 -33 8 -20 0 -23 -5 -23 -39z m50 4 c0 -8 -9 -15 -20 -15 -11 0 -20 7
-20 15 0 8 9 15 20 15 11 0 20 -7 20 -15z"/>
<path d="M2870 1916 c0 -7 -10 -18 -22 -25 -16 -8 -17 -10 -4 -6 11 3 22 1 26
-5 4 -7 18 -6 43 2 l36 13 -40 17 c-29 12 -39 13 -39 4z"/>
<path d="M3417 1896 c-4 -9 -2 -18 4 -21 5 -4 7 -11 4 -16 -8 -13 -4 -12 40
10 42 20 44 18 -26 37 -9 3 -19 -2 -22 -10z"/>
<path d="M3310 1881 c0 -6 18 -9 40 -9 22 0 40 4 40 9 0 5 -18 9 -40 9 -22 0
-40 -4 -40 -9z"/>
<path d="M2045 1670 c-11 -4 -31 -20 -45 -35 -20 -21 -25 -37 -25 -80 0 -36 5
-59 17 -72 17 -18 16 -21 -13 -56 -16 -20 -35 -34 -42 -31 -8 2 -13 -7 -14
-27 -1 -17 -8 -38 -14 -45 -7 -8 -10 -17 -7 -20 8 -8 72 59 72 76 1 8 11 28
23 44 21 26 25 27 57 16 27 -8 45 -8 76 1 l42 13 34 -40 c18 -21 31 -45 29
-51 -2 -7 0 -13 6 -13 5 0 21 -12 34 -26 32 -34 52 -22 25 16 -11 15 -20 36
-20 45 0 14 -3 15 -14 6 -11 -9 -21 -2 -49 32 -33 41 -35 45 -19 60 11 11 16
35 16 73 1 52 -2 58 -36 90 -39 35 -86 44 -133 24z m82 -10 c8 0 28 -13 44
-29 43 -43 41 -101 -5 -147 -49 -49 -114 -45 -158 10 -22 27 -23 94 -2 125 19
26 72 53 92 46 8 -3 20 -5 29 -5z"/>
<path d="M2062 1588 c-28 -28 0 -93 36 -86 25 5 25 25 0 24 -18 -1 -24 5 -26
27 -4 31 24 50 39 26 7 -11 9 -11 9 4 0 20 -39 24 -58 5z"/>
<path d="M4669 1403 c-1 -5 0 -25 1 -46 1 -27 -4 -43 -17 -52 -10 -8 -13 -15
-6 -15 10 0 29 -55 25 -72 -1 -5 3 -8 8 -8 6 0 11 7 11 15 2 19 4 25 14 49 6
13 5 21 -3 24 -7 2 -12 25 -12 58 0 30 -4 54 -10 54 -5 0 -10 -3 -11 -7z"/>
<path d="M4584 1166 c-28 -28 -34 -42 -34 -76 0 -26 8 -56 21 -76 19 -32 19
-34 3 -61 -26 -41 -56 -73 -64 -68 -5 3 -11 -6 -14 -19 -3 -13 -9 -32 -12 -41
-6 -14 0 -13 29 6 22 14 35 30 32 38 -3 7 9 32 25 55 l31 41 72 0 c60 0 75 -3
90 -20 24 -28 51 -78 49 -90 -1 -6 12 -19 30 -29 31 -19 31 -19 24 0 -5 10
-11 27 -13 37 -3 9 -10 17 -17 17 -6 0 -19 12 -28 28 -10 15 -28 40 -40 55
-22 27 -22 29 -5 42 26 19 39 72 27 114 -13 50 -62 81 -124 81 -41 0 -53 -5
-82 -34z m148 -3 c18 -15 36 -32 40 -38 11 -15 9 -61 -3 -89 -16 -35 -82 -67
-118 -56 -41 12 -69 32 -75 55 -32 116 69 199 156 128z"/>
<path d="M4646 1115 c-3 -9 -6 -29 -6 -45 0 -22 5 -29 25 -32 32 -7 44 8 42
52 -2 30 -6 35 -28 38 -17 2 -29 -3 -33 -13z m39 -5 c3 -5 -1 -10 -9 -10 -9 0
-16 5 -16 10 0 6 4 10 9 10 6 0 13 -4 16 -10z m5 -45 c0 -8 -7 -15 -15 -15 -8
0 -15 7 -15 15 0 8 7 15 15 15 8 0 15 -7 15 -15z"/>
<path d="M1216 994 c6 -64 5 -66 -15 -59 -24 7 -26 -2 -6 -29 28 -36 19 -60
-27 -77 -61 -22 -87 -72 -75 -144 1 -11 6 -26 11 -33 4 -6 4 -16 1 -22 -3 -6
1 -7 9 -4 16 6 23 -11 8 -18 -4 -1 -23 -24 -42 -50 -18 -27 -36 -46 -38 -43
-3 3 -12 -13 -20 -36 -7 -22 -12 -42 -10 -44 2 -2 19 11 38 28 21 18 29 32 22
35 -8 2 -3 15 15 36 16 17 35 42 43 54 14 22 16 22 46 7 28 -14 36 -14 81 1
45 15 51 20 67 62 l16 47 90 3 c78 2 90 1 90 -13 0 -9 3 -15 8 -13 4 3 22 10
41 18 l33 13 -38 13 c-24 8 -40 10 -42 4 -6 -15 -182 -13 -186 3 -14 54 -24
73 -42 82 -11 6 -19 15 -17 22 2 6 -1 14 -6 18 -7 4 -8 0 -4 -11 5 -14 3 -16
-11 -11 -10 4 -22 7 -26 7 -10 0 7 58 23 78 9 11 3 16 -16 13 -5 -1 -6 28 -2
64 6 57 5 65 -9 65 -15 0 -16 -9 -10 -66z m63 -200 c39 -32 49 -80 26 -127
-21 -45 -53 -61 -105 -54 -76 10 -114 89 -74 156 32 55 104 67 153 25z"/>
<path d="M1192 718 c-22 -41 -22 -62 0 -40 18 18 48 15 48 -5 0 -11 3 -14 10
-7 10 10 -16 94 -29 94 -3 0 -16 -19 -29 -42z m38 -3 c0 -8 -7 -15 -15 -15
-16 0 -20 12 -8 23 11 12 23 8 23 -8z"/>
<path d="M2540 1000 c0 -27 5 -50 10 -50 6 0 10 23 10 50 0 28 -4 50 -10 50
-5 0 -10 -22 -10 -50z"/>
<path d="M2525 901 c4 -9 9 -31 12 -48 5 -29 3 -33 -17 -33 -13 0 -39 -17 -61
-38 -32 -33 -38 -45 -37 -81 0 -29 8 -51 23 -69 l23 -28 -29 -39 c-17 -22 -38
-40 -47 -40 -11 0 -18 -10 -20 -30 -2 -16 -8 -35 -13 -42 -6 -7 -6 -13 -1 -17
13 -8 72 51 67 66 -3 7 10 30 28 51 31 37 34 38 72 29 88 -19 169 60 147 143
l-9 30 98 37 c159 60 392 86 504 58 72 -19 125 -42 119 -51 -3 -5 3 -9 13 -9
10 0 29 -3 43 -7 l25 -6 -29 31 c-15 17 -34 28 -41 25 -8 -2 -29 2 -47 11 -18
8 -52 20 -76 26 -51 13 -253 14 -302 1 -74 -20 -216 -61 -230 -67 -8 -4 -19
-8 -25 -8 -5 -1 -20 -7 -33 -14 -20 -12 -26 -10 -53 12 -17 14 -42 26 -56 26
-23 0 -25 3 -19 28 14 56 12 67 -12 68 -17 1 -22 -3 -17 -15z m80 -106 c110
-53 38 -222 -83 -194 -44 10 -61 27 -71 70 -11 51 5 97 42 119 39 24 68 25
112 5z"/>
<path d="M2520 708 c-10 -24 -16 -45 -13 -48 3 -3 8 1 10 8 7 18 50 15 57 -4
4 -9 9 -14 12 -11 8 8 -27 97 -38 97 -5 0 -17 -19 -28 -42z m35 3 c3 -5 1 -12
-5 -16 -5 -3 -10 1 -10 9 0 18 6 21 15 7z"/>
<path d="M1674 815 c-55 -38 -66 -125 -23 -179 l20 -26 -27 -35 c-14 -19 -32
-35 -38 -35 -10 0 -40 -59 -33 -66 1 -2 18 7 36 19 19 11 29 23 22 25 -7 2 1
19 20 43 30 38 34 40 73 34 22 -4 53 -2 67 4 24 9 29 6 58 -34 17 -24 30 -47
29 -52 -1 -4 12 -22 29 -39 25 -25 35 -29 43 -19 7 9 6 16 -5 25 -8 7 -15 21
-15 31 0 12 -7 19 -19 19 -23 0 -86 75 -77 93 3 6 15 26 25 44 17 26 18 38 9
69 -5 21 -23 50 -38 66 -24 24 -37 28 -82 28 -31 0 -62 -6 -74 -15z m119 -7
c72 -38 80 -127 18 -183 -15 -13 -37 -19 -68 -19 -40 0 -49 4 -74 34 -22 26
-29 45 -29 77 0 24 5 43 10 43 6 0 10 6 10 13 0 16 56 45 88 46 13 1 33 -4 45
-11z"/>
<path d="M1722 748 c-36 -36 5 -103 44 -72 18 13 17 14 -8 8 -28 -6 -33 0 -28
36 3 26 18 34 36 19 15 -12 17 -12 12 1 -6 19 -40 24 -56 8z"/>
<path d="M3005 809 c-32 -16 -65 -72 -65 -111 0 -24 8 -46 25 -66 l25 -29 -31
-42 c-16 -23 -35 -41 -42 -38 -12 4 -53 -70 -44 -79 2 -3 17 6 32 20 16 15 32
26 36 26 5 0 6 6 4 13 -3 6 8 27 24 46 26 32 31 34 95 35 67 2 68 1 97 -35 15
-20 25 -39 22 -43 -8 -8 41 -56 57 -56 15 0 12 16 -5 30 -8 7 -15 21 -15 31 0
11 -5 16 -13 13 -8 -3 -25 11 -39 32 l-27 37 20 27 c31 42 36 102 10 143 -11
18 -32 39 -46 45 -31 14 -92 15 -120 1z m110 -13 c40 -17 55 -42 55 -94 0 -75
-68 -125 -140 -103 -86 26 -97 156 -16 195 39 19 58 20 101 2z"/>
<path d="M3037 734 c-15 -15 -7 -84 9 -91 29 -11 49 11 49 53 0 34 -3 39 -25
42 -14 2 -29 0 -33 -4z m35 -19 c0 -5 -5 -11 -11 -13 -6 -2 -11 4 -11 13 0 9
5 15 11 13 6 -2 11 -8 11 -13z m8 -40 c0 -8 -6 -15 -14 -15 -17 0 -28 14 -19
24 12 12 33 6 33 -9z"/>
<path d="M3512 800 c-34 -15 -47 -29 -59 -60 -9 -22 -22 -40 -30 -40 -7 0 -13
-4 -13 -10 0 -6 3 -9 8 -9 23 4 32 -4 32 -29 0 -18 10 -37 32 -55 33 -30 61
-35 119 -24 33 7 38 5 63 -28 15 -19 22 -35 16 -35 -16 0 41 -68 58 -69 17 -1
15 36 -3 43 -8 3 -15 14 -15 25 0 10 -9 21 -19 24 -10 2 -26 16 -35 30 -16 23
-16 27 3 58 13 20 21 51 21 76 0 35 -6 48 -35 78 -20 19 -44 35 -55 35 -10 0
-24 2 -32 5 -7 2 -32 -4 -56 -15z m114 -21 c75 -46 48 -174 -40 -194 -37 -9
-80 10 -103 45 -29 42 -29 89 -2 124 39 49 92 58 145 25z"/>
<path d="M3543 723 c-21 -8 -16 -67 7 -81 23 -14 66 1 54 19 -4 6 -11 6 -20
-2 -12 -10 -18 -9 -32 5 -23 23 -4 52 32 49 15 -1 24 2 21 8 -6 9 -41 11 -62
2z"/>
<path d="M4330 792 c-20 -17 -38 -45 -45 -68 -10 -35 -9 -43 12 -76 13 -21 23
-43 23 -50 0 -22 -54 -74 -72 -70 -14 3 -18 -3 -18 -27 0 -16 -4 -33 -10 -36
-13 -8 -13 -35 0 -35 15 0 69 62 70 80 0 8 13 30 28 48 26 31 30 33 55 21 21
-9 36 -10 64 -1 31 10 40 9 55 -5 10 -9 18 -20 18 -25 0 -5 11 -21 24 -35 13
-14 22 -32 19 -39 -3 -8 -1 -14 5 -14 5 0 21 -12 36 -27 28 -27 49 -24 28 5
-7 9 -17 29 -23 44 -6 16 -16 25 -24 22 -8 -3 -19 5 -26 18 -6 13 -22 36 -35
51 l-23 28 19 32 c37 59 21 124 -39 164 -48 32 -98 30 -141 -5z m114 4 c44
-18 66 -52 66 -99 0 -31 -7 -46 -35 -74 -32 -32 -39 -35 -78 -30 -61 8 -97 53
-89 110 6 51 23 77 59 93 37 16 38 16 77 0z"/>
<path d="M4390 718 c-27 -45 -27 -62 1 -46 17 11 22 10 35 -6 7 -11 16 -17 19
-14 5 5 -24 98 -31 98 -2 0 -13 -15 -24 -32z m30 -13 c0 -8 -4 -15 -10 -15 -5
0 -10 7 -10 15 0 8 5 15 10 15 6 0 10 -7 10 -15z"/>
<path d="M4894 800 c-60 -24 -85 -130 -44 -183 11 -14 20 -27 20 -30 0 -11
-63 -82 -73 -82 -5 0 -15 -13 -20 -30 -6 -16 -15 -33 -21 -37 -6 -4 -7 -10 -3
-14 4 -4 18 5 31 19 14 15 30 27 36 27 7 0 10 6 7 13 -2 6 9 31 26 54 29 41
30 42 78 36 32 -4 54 -1 64 7 8 7 22 10 30 6 9 -3 13 -2 10 4 -3 5 4 24 15 42
62 102 -42 214 -156 168z m106 -15 c31 -16 60 -61 60 -92 0 -30 -37 -81 -71
-98 -118 -61 -208 126 -91 189 35 20 66 20 102 1z"/>
<path d="M4920 721 c-15 -29 -12 -46 9 -65 15 -14 24 -15 40 -6 28 15 26 19
-6 17 -25 -2 -28 1 -28 28 0 27 3 30 30 28 22 -2 26 0 15 7 -24 15 -48 12 -60
-9z"/>
<path d="M507 769 c7 -7 8 -20 4 -33 -10 -28 -7 -79 5 -83 6 -2 11 24 11 62 0
53 -2 65 -15 65 -12 0 -13 -3 -5 -11z"/>
<path d="M667 769 c-5 -9 -7 -34 -5 -55 3 -37 5 -39 38 -41 35 -2 35 -2 8 9
-23 10 -28 18 -30 57 -3 32 -6 41 -11 30z"/>
<path d="M745 721 c0 -40 4 -57 12 -54 16 6 22 39 16 79 -9 57 -29 41 -28 -25z"/>
<path d="M560 721 c0 -28 5 -51 10 -51 6 0 10 11 10 25 0 18 4 23 15 19 8 -4
15 -12 15 -19 0 -8 4 -16 10 -20 5 -3 8 14 6 42 -2 46 -4 48 -34 51 l-32 3 0
-50z m50 18 c0 -5 -7 -9 -15 -9 -15 0 -20 12 -9 23 8 8 24 -1 24 -14z"/>
<path d="M3240 707 l-35 -9 29 -12 c32 -13 86 -10 86 5 0 5 -9 9 -19 9 -11 0
-21 4 -23 8 -1 5 -19 4 -38 -1z"/>
<path d="M3340 690 c0 -5 11 -10 24 -10 14 0 28 5 31 10 4 6 -7 10 -24 10 -17
0 -31 -4 -31 -10z"/>
<path d="M5050 565 c0 -4 9 -20 20 -35 11 -16 19 -32 18 -37 -1 -4 12 -23 29
-41 34 -35 55 -27 29 10 -9 12 -16 31 -16 41 0 13 -5 17 -15 14 -8 -4 -24 6
-40 24 -14 17 -25 28 -25 24z"/>
<path d="M1428 451 c-35 -22 -49 -39 -57 -67 -12 -42 -4 -93 15 -101 8 -3 14
-12 14 -20 0 -21 -61 -89 -77 -85 -7 2 -13 -5 -13 -16 0 -10 -5 -23 -11 -29
-7 -7 -8 -13 0 -17 13 -9 63 23 55 35 -3 5 5 22 18 38 13 16 28 36 33 46 10
16 15 16 45 5 27 -9 45 -10 74 -2 22 6 43 9 47 6 5 -3 6 2 3 10 -3 9 -2 16 3
16 14 0 33 46 33 79 0 51 -19 87 -59 109 -51 29 -68 28 -123 -7z m120 -7 c88
-61 51 -194 -55 -194 -54 0 -89 22 -103 65 -15 45 -4 79 36 115 39 34 86 40
122 14z"/>
<path d="M1460 356 c0 -45 1 -46 31 -46 29 0 30 1 27 43 -3 38 -6 42 -30 45
-27 3 -28 2 -28 -42z m50 19 c0 -8 -9 -15 -20 -15 -13 0 -18 5 -14 15 4 8 12
15 20 15 8 0 14 -7 14 -15z m-2 -43 c2 -7 -6 -12 -17 -12 -21 0 -27 11 -14 24
9 9 26 2 31 -12z"/>
<path d="M1586 218 c4 -7 14 -21 22 -30 8 -9 12 -22 10 -29 -5 -16 49 -72 62
-64 8 5 6 14 -4 31 -9 13 -16 31 -16 40 0 10 -5 14 -15 10 -10 -3 -20 5 -30
24 -9 17 -20 30 -26 30 -6 0 -7 -6 -3 -12z"/>
</g>
</svg>
