<?xml version="1.0" standalone="no"?>
<!DOCTYPE svg PUBLIC "-//W3C//DTD SVG 20010904//EN"
 "http://www.w3.org/TR/2001/REC-SVG-20010904/DTD/svg10.dtd">
<svg version="1.0" xmlns="http://www.w3.org/2000/svg"
 width="546.000000pt" height="207.000000pt" viewBox="0 0 546.000000 207.000000"
 preserveAspectRatio="xMidYMid meet">

<g transform="translate(0.000000,207.000000) scale(0.100000,-0.100000)"
fill="#000000" stroke="none">
<path d="M1776 1861 c-3 -5 -4 -15 -2 -23 3 -7 7 -75 10 -151 l5 -137 -33 -14
c-50 -21 -76 -60 -76 -117 0 -36 6 -55 25 -77 l25 -30 -56 -95 -56 -95 -57 5
c-53 5 -58 4 -88 -27 -42 -43 -50 -89 -23 -144 26 -55 72 -81 129 -73 l42 5
31 -61 c17 -34 33 -64 37 -67 3 -3 14 -20 25 -38 18 -33 18 -34 -4 -54 -31
-29 -39 -58 -30 -106 8 -46 45 -88 86 -98 14 -4 46 -4 72 -1 37 4 52 12 73 37
36 42 45 102 22 138 -47 73 -91 92 -158 69 -17 -6 -23 1 -38 37 -10 24 -34 70
-53 102 l-35 57 26 27 c37 39 35 98 -6 145 l-32 36 20 27 c10 15 34 58 53 96
l33 68 56 -5 c76 -6 114 20 131 94 9 37 9 54 1 62 -6 6 -11 21 -11 33 0 16
-11 27 -42 40 -24 10 -48 18 -55 17 -8 0 -11 43 -10 161 2 142 0 161 -15 164
-9 2 -19 -1 -22 -7z m87 -369 c21 -22 27 -38 27 -74 0 -39 -5 -50 -31 -72 -38
-32 -86 -34 -123 -5 -38 30 -48 54 -40 96 15 81 111 113 167 55z m-235 -410
c42 -39 50 -77 26 -121 -34 -64 -99 -75 -160 -26 -25 20 -29 30 -29 70 0 40 5
51 33 76 43 39 89 39 130 1z m248 -426 c27 -27 34 -42 34 -74 0 -55 -45 -102
-97 -102 -44 0 -98 38 -107 76 -10 40 12 93 48 115 47 29 82 25 122 -15z"/>
<path d="M1783 1483 c-20 -7 -15 -26 5 -21 15 4 18 -1 18 -29 0 -28 -3 -33
-18 -30 -10 3 -18 1 -18 -3 0 -15 19 -22 40 -15 16 5 20 15 20 50 0 30 -5 45
-16 49 -9 3 -16 6 -17 5 -1 0 -8 -3 -14 -6z"/>
<path d="M1530 1035 c0 -8 5 -15 10 -15 6 0 10 -16 10 -35 0 -19 5 -35 10 -35
6 0 10 23 10 50 0 43 -3 50 -20 50 -11 0 -20 -7 -20 -15z"/>
<path d="M1777 623 c-4 -3 -7 -13 -7 -21 0 -13 3 -12 19 2 31 28 37 -1 7 -33
-14 -15 -23 -30 -19 -34 10 -11 53 -8 53 3 0 6 -5 10 -10 10 -6 0 -4 11 5 24
8 13 13 31 9 40 -6 16 -44 22 -57 9z"/>
<path d="M3644 1864 c-7 -3 -9 -56 -7 -158 l4 -154 -37 -18 c-69 -34 -93 -95
-64 -163 15 -36 79 -71 132 -71 33 0 38 -5 89 -82 64 -99 64 -99 52 -107 -49
-33 -57 -122 -16 -171 26 -31 26 -33 9 -58 -9 -15 -34 -62 -56 -104 -39 -76
-40 -77 -73 -71 -65 10 -147 -58 -147 -123 0 -69 44 -113 128 -130 56 -11 119
38 122 96 4 68 0 85 -26 113 -24 26 -25 30 -10 46 9 10 16 21 16 25 0 4 11 22
24 39 14 18 34 53 45 79 19 45 22 47 46 38 41 -16 61 -12 94 16 39 33 64 84
58 121 -11 61 -28 90 -66 111 -44 25 -63 27 -91 10 -10 -7 -21 -10 -22 -8 -2
3 -21 34 -42 70 -22 36 -48 75 -59 88 -20 21 -20 23 -3 35 24 18 46 114 34
149 -10 28 -66 68 -96 68 -15 0 -17 15 -14 160 2 88 0 160 -5 159 -4 0 -13 -3
-19 -5z m73 -356 c25 -21 45 -77 38 -109 -8 -36 -58 -79 -93 -79 -38 0 -91 35
-103 67 -20 52 9 116 61 136 22 9 79 0 97 -15z m236 -408 c83 -65 30 -204 -69
-185 -97 18 -127 129 -51 183 39 27 86 28 120 2z m-228 -445 c37 -37 35 -106
-4 -146 -82 -82 -214 18 -157 120 30 54 119 69 161 26z"/>
<path d="M3625 1471 c-3 -5 -1 -12 5 -16 5 -3 10 -22 10 -41 0 -19 5 -34 10
-34 6 0 10 23 10 50 0 37 -4 50 -14 50 -8 0 -17 -4 -21 -9z"/>
<path d="M3867 1064 c-15 -16 -6 -24 21 -18 24 7 26 6 13 -9 -11 -14 -11 -20
0 -34 13 -15 11 -16 -14 -9 -22 5 -28 4 -25 -6 3 -7 18 -13 34 -13 28 0 29 2
29 45 0 41 -2 45 -25 48 -14 2 -29 0 -33 -4z"/>
<path d="M3620 614 c0 -13 3 -14 14 -5 24 20 29 -7 7 -38 -28 -38 -27 -41 12
-41 29 1 30 2 14 14 -15 12 -16 15 -2 26 25 21 15 54 -17 58 -21 3 -28 -1 -28
-14z"/>
<path d="M4568 1858 c-3 -7 -1 -49 3 -93 4 -44 8 -113 8 -152 l1 -73 -34 -14
c-132 -55 -73 -250 71 -233 l44 5 50 -85 50 -84 -26 -31 c-40 -47 -37 -109 6
-154 38 -40 98 -61 127 -45 18 10 23 8 35 -11 8 -13 31 -49 51 -81 36 -58 45
-87 25 -87 -18 0 -41 -71 -34 -106 19 -104 147 -141 238 -68 26 20 33 32 26
40 -7 9 -5 15 7 22 17 10 16 15 -28 108 -14 29 -76 48 -132 41 l-44 -6 -17 41
c-9 23 -30 59 -47 80 l-30 39 27 39 27 39 -17 54 c-20 64 -21 66 -63 95 -32
23 -53 24 -92 8 -11 -4 -21 8 -38 44 -12 27 -36 66 -54 85 l-31 36 32 32 c39
41 40 71 4 137 -23 43 -31 50 -57 50 -17 0 -36 4 -41 8 -7 4 -10 69 -10 167 0
140 -2 160 -16 163 -9 2 -19 -3 -21 -10z m105 -378 c40 -44 37 -92 -7 -136
-38 -38 -70 -43 -116 -19 -36 19 -50 43 -50 88 0 94 109 137 173 67z m220
-377 c50 -25 59 -99 18 -152 -12 -16 -31 -25 -62 -28 -38 -4 -50 -1 -76 21
-50 42 -50 120 0 155 45 33 62 34 120 4z m248 -402 c23 -23 29 -38 29 -71 0
-111 -152 -140 -195 -37 -41 97 91 183 166 108z"/>
<path d="M4584 1459 c-3 -6 -1 -16 5 -22 6 -6 11 -24 11 -39 0 -15 5 -28 10
-28 6 0 10 23 10 50 0 37 -4 50 -14 50 -8 0 -18 -5 -22 -11z"/>
<path d="M4823 1073 c-21 -8 -14 -25 7 -18 27 9 26 -12 -2 -42 -24 -26 -24
-28 15 -37 26 -6 39 8 15 17 -10 3 -10 7 0 20 28 33 3 76 -35 60z"/>
<path d="M5052 667 c-16 -19 -3 -30 16 -14 13 10 14 9 8 -10 -4 -12 -2 -24 4
-28 21 -13 10 -27 -16 -21 -19 5 -25 3 -22 -6 6 -18 57 -23 63 -6 3 8 2 32 -3
53 -8 42 -30 56 -50 32z"/>
<path d="M876 1850 c-2 -3 2 -70 9 -150 6 -80 9 -151 7 -157 -2 -7 -15 -13
-27 -13 -13 0 -27 -4 -30 -10 -3 -5 -14 -10 -23 -10 -23 0 -42 -44 -42 -96 0
-36 6 -48 36 -76 l35 -34 -36 -55 c-19 -30 -40 -71 -46 -91 -11 -43 -9 -42
-60 -26 -33 9 -45 8 -77 -7 -43 -21 -92 -84 -92 -119 0 -14 18 -42 44 -70 l43
-47 -19 -24 c-10 -13 -32 -51 -49 -85 -26 -52 -34 -61 -51 -57 -29 8 -116 -10
-132 -26 -8 -7 -22 -39 -32 -70 -16 -52 -16 -57 -1 -81 9 -14 37 -37 62 -52
38 -22 53 -25 96 -21 54 6 64 14 102 85 16 30 16 35 2 69 -9 21 -25 48 -37 60
l-20 22 20 33 c11 18 32 56 45 84 l25 51 61 5 c53 4 66 9 94 36 28 28 32 39
32 86 0 43 -5 60 -22 78 -29 31 -29 42 2 82 14 18 25 37 25 41 0 5 8 25 17 47
l17 38 50 -6 c47 -6 54 -4 93 27 53 44 62 92 28 159 -18 35 -31 48 -62 59
l-41 15 -6 115 c-4 64 -5 134 -2 156 5 36 3 41 -15 41 -11 0 -22 -3 -23 -6z
m112 -376 c36 -38 41 -71 15 -114 -32 -54 -102 -66 -151 -25 -16 14 -33 37
-36 51 -17 66 46 141 109 128 17 -3 45 -21 63 -40z m-225 -404 c80 -89 -41
-225 -135 -150 -39 30 -52 71 -38 115 26 77 118 96 173 35z m-222 -399 c77
-77 -14 -216 -109 -167 -46 24 -65 52 -65 98 0 89 110 132 174 69z"/>
<path d="M894 1465 c-18 -14 -18 -14 5 -15 15 0 21 -5 18 -14 -3 -7 0 -19 6
-25 17 -17 -2 -27 -24 -12 -29 17 -34 8 -8 -14 15 -15 24 -17 37 -9 21 13 28
70 11 90 -14 18 -20 18 -45 -1z"/>
<path d="M655 1054 c-20 -15 -20 -15 2 -11 34 7 36 -7 8 -41 -29 -34 -22 -45
21 -32 16 4 21 9 12 9 -22 1 -23 9 -1 33 13 14 15 23 7 35 -15 24 -27 26 -49
7z"/>
<path d="M450 645 c-9 -10 -9 -15 -1 -15 6 0 11 -16 11 -35 0 -19 5 -35 10
-35 12 0 13 87 1 94 -5 3 -14 -1 -21 -9z"/>
<path d="M2717 1700 l3 -160 -25 -6 c-32 -8 -71 -55 -80 -94 -5 -23 0 -44 18
-81 l24 -50 -52 -82 c-48 -75 -55 -82 -86 -83 -73 -2 -81 -4 -86 -24 -4 -15
-9 -18 -18 -10 -10 8 -18 3 -33 -22 -16 -27 -19 -41 -12 -73 11 -60 19 -73 56
-95 40 -25 95 -28 145 -6 46 19 58 35 67 86 7 39 4 46 -25 78 -18 20 -33 42
-33 49 0 7 18 39 39 71 22 32 45 70 50 85 9 24 13 26 32 17 11 -6 34 -10 51
-8 29 3 35 -2 69 -57 76 -120 74 -111 39 -154 -36 -46 -38 -81 -7 -122 30 -42
67 -59 123 -59 42 0 51 4 85 40 45 47 56 79 39 119 -27 66 -116 111 -166 83
-15 -8 -21 -3 -40 37 -13 25 -37 65 -55 88 l-32 42 32 27 c44 37 52 55 41 96
-14 48 -49 87 -94 102 l-38 13 1 134 c1 74 4 144 8 157 4 18 1 22 -18 22 l-24
0 2 -160z m71 -196 c54 -38 62 -110 16 -159 -42 -46 -130 -29 -158 30 -43 90
62 185 142 129z m-228 -411 c22 -20 33 -40 37 -70 5 -39 2 -46 -31 -79 -32
-32 -41 -36 -73 -31 -20 4 -49 19 -65 33 -22 22 -28 36 -28 72 0 36 5 49 31
73 41 38 87 39 129 2z m476 -7 c26 -26 34 -42 34 -71 0 -46 -53 -105 -95 -105
-61 0 -104 45 -105 108 0 36 5 49 31 73 44 41 90 40 135 -5z"/>
<path d="M2717 1483 c-15 -14 -6 -31 13 -26 11 3 20 1 20 -4 0 -6 -9 -18 -20
-28 -29 -27 -25 -45 10 -45 17 0 30 5 30 10 0 6 -5 10 -10 10 -7 0 -7 6 0 19
15 29 12 58 -6 65 -20 8 -29 8 -37 -1z"/>
<path d="M2484 1062 c-12 -8 -6 -102 6 -102 10 0 19 92 11 102 -3 4 -11 4 -17
0z"/>
<path d="M2933 1063 c-22 -8 -14 -25 9 -18 17 6 20 4 14 -10 -3 -10 -2 -23 4
-30 15 -18 -6 -30 -25 -15 -12 10 -15 9 -15 -3 0 -20 37 -32 54 -17 8 6 14 27
14 48 0 46 -18 60 -55 45z"/>
<path d="M1752 331 c-6 -17 -7 -44 -2 -66 9 -42 15 -49 29 -41 6 4 6 16 -1 36
-11 33 -4 80 12 80 6 0 10 -22 10 -50 0 -46 2 -50 24 -50 41 0 50 55 11 70
-14 5 -25 16 -25 24 0 13 -20 26 -40 26 -4 0 -13 -13 -18 -29z m88 -51 c0 -11
-4 -20 -10 -20 -5 0 -10 9 -10 20 0 11 5 20 10 20 6 0 10 -9 10 -20z"/>
<path d="M1874 290 c0 -70 8 -84 34 -58 25 25 9 128 -21 128 -8 0 -12 -22 -13
-70z"/>
<path d="M2654 326 c-6 -36 3 -96 14 -96 4 0 7 29 7 65 0 70 -10 86 -21 31z"/>
<path d="M2758 354 c-3 -3 -3 -17 1 -32 4 -15 4 -42 -1 -60 -11 -38 -8 -45 16
-36 17 7 21 46 10 103 -6 30 -14 37 -26 25z"/>
<path d="M3725 298 c3 -43 8 -63 17 -63 9 0 13 17 13 60 0 48 -3 60 -16 63
-15 3 -17 -6 -14 -60z"/>
<path d="M3690 330 c0 -13 -7 -20 -19 -20 -11 0 -22 -9 -26 -20 -9 -28 12 -62
37 -58 17 3 20 11 21 61 1 31 -1 57 -5 57 -5 0 -8 -9 -8 -20z m0 -56 c0 -14
-12 -19 -23 -8 -9 9 4 35 14 28 5 -3 9 -12 9 -20z"/>
<path d="M4627 317 c-5 -35 1 -87 12 -87 3 0 6 27 7 60 1 65 -10 81 -19 27z"/>
<path d="M4735 290 c0 -42 4 -60 13 -60 19 0 25 25 18 75 -11 68 -32 58 -31
-15z"/>
<path d="M822 278 c4 -83 23 -86 23 -3 0 47 -3 65 -13 65 -10 0 -12 -16 -10
-62z"/>
<path d="M924 324 c3 -9 6 -38 6 -65 0 -58 20 -67 35 -16 13 40 -6 97 -31 97
-11 0 -14 -5 -10 -16z"/>
<path d="M3602 288 c4 -70 23 -73 23 -3 0 39 -4 55 -13 55 -9 0 -12 -14 -10
-52z"/>
<path d="M2702 308 c-7 -7 -12 -20 -12 -29 0 -21 26 -43 40 -34 15 9 12 25 -5
25 -8 0 -15 7 -15 16 0 11 5 14 16 10 10 -4 14 -1 12 6 -6 17 -22 20 -36 6z"/>
<path d="M4670 290 c-9 -16 -8 -25 1 -36 13 -16 39 -19 39 -3 0 5 -4 7 -10 4
-5 -3 -10 -1 -10 4 0 6 7 11 16 11 21 0 14 34 -8 38 -9 2 -22 -6 -28 -18z"/>
<path d="M873 286 c3 -8 2 -18 -3 -21 -20 -12 -10 -35 16 -35 23 0 25 3 22 32
-2 23 -9 34 -22 36 -14 3 -17 0 -13 -12z"/>
</g>
</svg>
